<svg width="229" height="77" viewBox="0 0 229 77" fill="none" xmlns="http://www.w3.org/2000/svg">
<g opacity="0.5">
<path d="M27.5 44.6501V48.4001C27.5014 48.7482 27.4301 49.0928 27.2907 49.4118C27.1512 49.7308 26.9467 50.0171 26.6901 50.2525C26.4336 50.4878 26.1308 50.667 25.801 50.7785C25.4712 50.89 25.1218 50.9315 24.775 50.9001C20.9286 50.4822 17.2338 49.1678 13.9875 47.0626C10.9673 45.1435 8.40671 42.5828 6.48754 39.5626C4.37501 36.3016 3.06034 32.5889 2.65004 28.7251C2.6188 28.3795 2.65988 28.0311 2.77066 27.7022C2.88145 27.3732 3.0595 27.071 3.2935 26.8146C3.52749 26.5583 3.81229 26.3535 4.12978 26.2133C4.44726 26.073 4.79046 26.0004 5.13754 26.0001H8.88754C9.49417 25.9942 10.0823 26.209 10.5422 26.6045C11.0022 27.0001 11.3026 27.5494 11.3875 28.1501C11.5458 29.3502 11.8394 30.5285 12.2625 31.6626C12.4307 32.11 12.4671 32.5963 12.3674 33.0637C12.2677 33.5312 12.0361 33.9603 11.7 34.3001L10.1125 35.8876C11.892 39.0171 14.4831 41.6082 17.6125 43.3876L19.2 41.8001C19.5399 41.464 19.969 41.2324 20.4364 41.1327C20.9039 41.033 21.3901 41.0694 21.8375 41.2376C22.9716 41.6608 24.15 41.9543 25.35 42.1126C25.9572 42.1983 26.5118 42.5041 26.9082 42.972C27.3046 43.4398 27.5152 44.0371 27.5 44.6501Z" stroke="white" stroke-width="2" stroke-linecap="round" stroke-linejoin="round"/>
</g>
<path d="M52.1465 14.1523C52.1465 15.0182 51.9447 15.7539 51.541 16.3594C51.1439 16.9583 50.6035 17.4141 49.9199 17.7266C49.2428 18.0391 48.4779 18.1953 47.625 18.1953C46.7721 18.1953 46.0039 18.0391 45.3203 17.7266C44.6367 17.4141 44.0964 16.9583 43.6992 16.3594C43.3021 15.7539 43.1035 15.0182 43.1035 14.1523C43.1035 13.5859 43.2109 13.0684 43.4258 12.5996C43.6471 12.1243 43.9564 11.7109 44.3535 11.3594C44.7572 11.0078 45.2324 10.7376 45.7793 10.5488C46.3327 10.3535 46.9414 10.2559 47.6055 10.2559C48.4779 10.2559 49.2559 10.4251 49.9395 10.7637C50.623 11.0957 51.1602 11.5547 51.5508 12.1406C51.9479 12.7266 52.1465 13.3971 52.1465 14.1523ZM50.3301 14.1133C50.3301 13.5859 50.2161 13.1204 49.9883 12.7168C49.7604 12.3066 49.4414 11.9876 49.0312 11.7598C48.6211 11.5319 48.1458 11.418 47.6055 11.418C47.0521 11.418 46.5736 11.5319 46.1699 11.7598C45.7728 11.9876 45.4635 12.3066 45.2422 12.7168C45.0208 13.1204 44.9102 13.5859 44.9102 14.1133C44.9102 14.6602 45.0176 15.1289 45.2324 15.5195C45.4538 15.9036 45.7663 16.1999 46.1699 16.4082C46.5801 16.61 47.0651 16.7109 47.625 16.7109C48.1849 16.7109 48.6667 16.61 49.0703 16.4082C49.474 16.1999 49.7832 15.9036 49.998 15.5195C50.2194 15.1289 50.3301 14.6602 50.3301 14.1133ZM51.8145 7.48242C51.8145 8.17253 51.6322 8.79427 51.2676 9.34766C50.903 9.90104 50.4049 10.3372 49.7734 10.6562C49.1419 10.9753 48.4258 11.1348 47.625 11.1348C46.8112 11.1348 46.0853 10.9753 45.4473 10.6562C44.8158 10.3372 44.321 9.90104 43.9629 9.34766C43.6048 8.79427 43.4258 8.17253 43.4258 7.48242C43.4258 6.6556 43.6048 5.95247 43.9629 5.37305C44.3275 4.79362 44.8255 4.35091 45.457 4.04492C46.0885 3.73893 46.8079 3.58594 47.6152 3.58594C48.429 3.58594 49.1517 3.73893 49.7832 4.04492C50.4147 4.35091 50.9095 4.79362 51.2676 5.37305C51.6322 5.95247 51.8145 6.6556 51.8145 7.48242ZM50.0078 7.51172C50.0078 7.03646 49.9069 6.61654 49.7051 6.25195C49.5033 5.88737 49.2233 5.60091 48.8652 5.39258C48.5072 5.17773 48.0905 5.07031 47.6152 5.07031C47.14 5.07031 46.7233 5.17122 46.3652 5.37305C46.0137 5.56836 45.737 5.84831 45.5352 6.21289C45.3398 6.57747 45.2422 7.01042 45.2422 7.51172C45.2422 8 45.3398 8.42643 45.5352 8.79102C45.737 9.1556 46.0169 9.4388 46.375 9.64062C46.7331 9.84245 47.1497 9.94336 47.625 9.94336C48.1003 9.94336 48.5137 9.84245 48.8652 9.64062C49.2233 9.4388 49.5033 9.1556 49.7051 8.79102C49.9069 8.42643 50.0078 8 50.0078 7.51172ZM59.5195 12.3164V12.2188C59.5195 10.7995 59.679 9.51693 59.998 8.37109C60.3171 7.21875 60.724 6.20964 61.2188 5.34375C61.7135 4.47786 62.2344 3.76172 62.7812 3.19531C63.3281 2.6224 63.8327 2.20898 64.2949 1.95508L64.6758 3.14648C64.2917 3.43945 63.901 3.8431 63.5039 4.35742C63.1133 4.87174 62.752 5.50326 62.4199 6.25195C62.0944 7.00065 61.8307 7.86979 61.6289 8.85938C61.4271 9.84896 61.3262 10.9622 61.3262 12.1992V12.3359C61.3262 13.5729 61.4271 14.6895 61.6289 15.6855C61.8307 16.6751 62.0944 17.5475 62.4199 18.3027C62.752 19.0579 63.1133 19.6992 63.5039 20.2266C63.901 20.7604 64.2917 21.1836 64.6758 21.4961L64.2949 22.5898C63.8327 22.3359 63.3281 21.9225 62.7812 21.3496C62.2344 20.7832 61.7135 20.0671 61.2188 19.2012C60.724 18.3418 60.3171 17.3359 59.998 16.1836C59.679 15.0312 59.5195 13.7422 59.5195 12.3164ZM75.8574 13.2148V14.6992H65.584V13.6348L71.9512 3.78125H73.4258L71.8438 6.63281L67.6348 13.2148H75.8574ZM73.875 3.78125V18H72.0684V3.78125H73.875ZM79.2949 16.4863H79.4805C80.5221 16.4863 81.3685 16.3398 82.0195 16.0469C82.6706 15.7539 83.1719 15.36 83.5234 14.8652C83.875 14.3704 84.1159 13.8138 84.2461 13.1953C84.3763 12.5703 84.4414 11.929 84.4414 11.2715V9.09375C84.4414 8.44922 84.3665 7.8763 84.2168 7.375C84.0736 6.8737 83.8717 6.45378 83.6113 6.11523C83.3574 5.77669 83.0677 5.51953 82.7422 5.34375C82.4167 5.16797 82.0716 5.08008 81.707 5.08008C81.2904 5.08008 80.916 5.16471 80.584 5.33398C80.2585 5.49674 79.9818 5.72786 79.7539 6.02734C79.5326 6.32682 79.3633 6.67839 79.2461 7.08203C79.1289 7.48568 79.0703 7.92513 79.0703 8.40039C79.0703 8.82357 79.1224 9.23372 79.2266 9.63086C79.3307 10.028 79.4902 10.3861 79.7051 10.7051C79.9199 11.0241 80.1868 11.278 80.5059 11.4668C80.8314 11.6491 81.2122 11.7402 81.6484 11.7402C82.0521 11.7402 82.4297 11.6621 82.7812 11.5059C83.1393 11.3431 83.4551 11.125 83.7285 10.8516C84.0085 10.5716 84.2298 10.2559 84.3926 9.9043C84.5618 9.55273 84.6595 9.1849 84.6855 8.80078H85.5449C85.5449 9.34115 85.4375 9.875 85.2227 10.4023C85.0143 10.9232 84.7214 11.3984 84.3438 11.8281C83.9661 12.2578 83.5234 12.6029 83.0156 12.8633C82.5078 13.1172 81.9544 13.2441 81.3555 13.2441C80.6523 13.2441 80.0436 13.1074 79.5293 12.834C79.015 12.5605 78.5918 12.196 78.2598 11.7402C77.9342 11.2845 77.6901 10.7767 77.5273 10.2168C77.3711 9.65039 77.293 9.07747 77.293 8.49805C77.293 7.82096 77.3874 7.1862 77.5762 6.59375C77.765 6.0013 78.0449 5.48047 78.416 5.03125C78.7871 4.57552 79.2461 4.2207 79.793 3.9668C80.3464 3.71289 80.9844 3.58594 81.707 3.58594C82.5208 3.58594 83.2142 3.7487 83.7871 4.07422C84.36 4.39974 84.8255 4.83594 85.1836 5.38281C85.5482 5.92969 85.8151 6.54492 85.9844 7.22852C86.1536 7.91211 86.2383 8.61523 86.2383 9.33789V9.99219C86.2383 10.7279 86.1895 11.4766 86.0918 12.2383C86.0007 12.9935 85.8216 13.7161 85.5547 14.4062C85.2943 15.0964 84.9134 15.7148 84.4121 16.2617C83.9108 16.8021 83.2565 17.2318 82.4492 17.5508C81.6484 17.8633 80.6589 18.0195 79.4805 18.0195H79.2949V16.4863ZM90.5449 16.4863H90.7305C91.7721 16.4863 92.6185 16.3398 93.2695 16.0469C93.9206 15.7539 94.4219 15.36 94.7734 14.8652C95.125 14.3704 95.3659 13.8138 95.4961 13.1953C95.6263 12.5703 95.6914 11.929 95.6914 11.2715V9.09375C95.6914 8.44922 95.6165 7.8763 95.4668 7.375C95.3236 6.8737 95.1217 6.45378 94.8613 6.11523C94.6074 5.77669 94.3177 5.51953 93.9922 5.34375C93.6667 5.16797 93.3216 5.08008 92.957 5.08008C92.5404 5.08008 92.166 5.16471 91.834 5.33398C91.5085 5.49674 91.2318 5.72786 91.0039 6.02734C90.7826 6.32682 90.6133 6.67839 90.4961 7.08203C90.3789 7.48568 90.3203 7.92513 90.3203 8.40039C90.3203 8.82357 90.3724 9.23372 90.4766 9.63086C90.5807 10.028 90.7402 10.3861 90.9551 10.7051C91.1699 11.0241 91.4368 11.278 91.7559 11.4668C92.0814 11.6491 92.4622 11.7402 92.8984 11.7402C93.3021 11.7402 93.6797 11.6621 94.0312 11.5059C94.3893 11.3431 94.7051 11.125 94.9785 10.8516C95.2585 10.5716 95.4798 10.2559 95.6426 9.9043C95.8118 9.55273 95.9095 9.1849 95.9355 8.80078H96.7949C96.7949 9.34115 96.6875 9.875 96.4727 10.4023C96.2643 10.9232 95.9714 11.3984 95.5938 11.8281C95.2161 12.2578 94.7734 12.6029 94.2656 12.8633C93.7578 13.1172 93.2044 13.2441 92.6055 13.2441C91.9023 13.2441 91.2936 13.1074 90.7793 12.834C90.265 12.5605 89.8418 12.196 89.5098 11.7402C89.1842 11.2845 88.9401 10.7767 88.7773 10.2168C88.6211 9.65039 88.543 9.07747 88.543 8.49805C88.543 7.82096 88.6374 7.1862 88.8262 6.59375C89.015 6.0013 89.2949 5.48047 89.666 5.03125C90.0371 4.57552 90.4961 4.2207 91.043 3.9668C91.5964 3.71289 92.2344 3.58594 92.957 3.58594C93.7708 3.58594 94.4642 3.7487 95.0371 4.07422C95.61 4.39974 96.0755 4.83594 96.4336 5.38281C96.7982 5.92969 97.0651 6.54492 97.2344 7.22852C97.4036 7.91211 97.4883 8.61523 97.4883 9.33789V9.99219C97.4883 10.7279 97.4395 11.4766 97.3418 12.2383C97.2507 12.9935 97.0716 13.7161 96.8047 14.4062C96.5443 15.0964 96.1634 15.7148 95.6621 16.2617C95.1608 16.8021 94.5065 17.2318 93.6992 17.5508C92.8984 17.8633 91.9089 18.0195 90.7305 18.0195H90.5449V16.4863ZM104.354 12.2188V12.3164C104.354 13.7422 104.194 15.0312 103.875 16.1836C103.556 17.3359 103.149 18.3418 102.654 19.2012C102.16 20.0671 101.639 20.7832 101.092 21.3496C100.545 21.9225 100.04 22.3359 99.5781 22.5898L99.1973 21.4961C99.5814 21.2031 99.9688 20.793 100.359 20.2656C100.75 19.7448 101.111 19.1003 101.443 18.332C101.775 17.5703 102.042 16.6914 102.244 15.6953C102.446 14.6927 102.547 13.5729 102.547 12.3359V12.1992C102.547 10.9622 102.439 9.8457 102.225 8.84961C102.01 7.84701 101.73 6.96484 101.385 6.20312C101.046 5.44141 100.682 4.80013 100.291 4.2793C99.9069 3.75195 99.5423 3.34505 99.1973 3.05859L99.5781 1.95508C100.04 2.20898 100.545 2.6224 101.092 3.19531C101.639 3.76172 102.16 4.47786 102.654 5.34375C103.149 6.20964 103.556 7.21875 103.875 8.37109C104.194 9.51693 104.354 10.7995 104.354 12.2188ZM114.568 10.002H115.857C116.489 10.002 117.01 9.89779 117.42 9.68945C117.837 9.47461 118.146 9.1849 118.348 8.82031C118.556 8.44922 118.66 8.03255 118.66 7.57031C118.66 7.02344 118.569 6.56445 118.387 6.19336C118.204 5.82227 117.931 5.54232 117.566 5.35352C117.202 5.16471 116.74 5.07031 116.18 5.07031C115.672 5.07031 115.223 5.17122 114.832 5.37305C114.448 5.56836 114.145 5.84831 113.924 6.21289C113.709 6.57747 113.602 7.00716 113.602 7.50195H111.795C111.795 6.7793 111.977 6.12174 112.342 5.5293C112.706 4.93685 113.217 4.46484 113.875 4.11328C114.539 3.76172 115.307 3.58594 116.18 3.58594C117.039 3.58594 117.791 3.73893 118.436 4.04492C119.08 4.3444 119.581 4.79362 119.939 5.39258C120.298 5.98503 120.477 6.72396 120.477 7.60938C120.477 7.96745 120.392 8.35156 120.223 8.76172C120.06 9.16536 119.803 9.54297 119.451 9.89453C119.106 10.2461 118.657 10.5358 118.104 10.7637C117.55 10.985 116.886 11.0957 116.111 11.0957H114.568V10.002ZM114.568 11.4863V10.4023H116.111C117.016 10.4023 117.765 10.5098 118.357 10.7246C118.95 10.9395 119.415 11.2259 119.754 11.584C120.099 11.9421 120.34 12.3359 120.477 12.7656C120.62 13.1888 120.691 13.612 120.691 14.0352C120.691 14.6992 120.577 15.2884 120.35 15.8027C120.128 16.3171 119.812 16.7533 119.402 17.1113C118.999 17.4694 118.523 17.7396 117.977 17.9219C117.43 18.1042 116.834 18.1953 116.189 18.1953C115.571 18.1953 114.988 18.1074 114.441 17.9316C113.901 17.7559 113.423 17.502 113.006 17.1699C112.589 16.8314 112.264 16.418 112.029 15.9297C111.795 15.4349 111.678 14.8717 111.678 14.2402H113.484C113.484 14.735 113.592 15.168 113.807 15.5391C114.028 15.9102 114.34 16.1999 114.744 16.4082C115.154 16.61 115.636 16.7109 116.189 16.7109C116.743 16.7109 117.218 16.6165 117.615 16.4277C118.019 16.2324 118.328 15.9395 118.543 15.5488C118.764 15.1582 118.875 14.6667 118.875 14.0742C118.875 13.4818 118.751 12.9967 118.504 12.6191C118.257 12.235 117.905 11.9518 117.449 11.7695C117 11.5807 116.469 11.4863 115.857 11.4863H114.568ZM132.371 3.78125V4.79688L126.482 18H124.578L130.457 5.26562H122.762V3.78125H132.371ZM136.717 11.2324L135.271 10.8613L135.984 3.78125H143.279V5.45117H137.518L137.088 9.31836C137.348 9.16862 137.677 9.02865 138.074 8.89844C138.478 8.76823 138.94 8.70312 139.461 8.70312C140.118 8.70312 140.708 8.81706 141.229 9.04492C141.749 9.26628 142.192 9.58529 142.557 10.002C142.928 10.4186 143.211 10.9199 143.406 11.5059C143.602 12.0918 143.699 12.7461 143.699 13.4688C143.699 14.1523 143.605 14.7806 143.416 15.3535C143.234 15.9264 142.957 16.4277 142.586 16.8574C142.215 17.2806 141.746 17.6094 141.18 17.8438C140.62 18.0781 139.959 18.1953 139.197 18.1953C138.624 18.1953 138.081 18.1172 137.566 17.9609C137.059 17.7982 136.603 17.554 136.199 17.2285C135.802 16.8965 135.477 16.4863 135.223 15.998C134.975 15.5033 134.819 14.9238 134.754 14.2598H136.473C136.551 14.7936 136.707 15.2428 136.941 15.6074C137.176 15.972 137.482 16.2487 137.859 16.4375C138.243 16.6198 138.689 16.7109 139.197 16.7109C139.627 16.7109 140.008 16.6361 140.34 16.4863C140.672 16.3366 140.952 16.1217 141.18 15.8418C141.408 15.5618 141.58 15.2233 141.697 14.8262C141.821 14.429 141.883 13.9831 141.883 13.4883C141.883 13.0391 141.821 12.6224 141.697 12.2383C141.574 11.8542 141.388 11.5189 141.141 11.2324C140.9 10.946 140.604 10.7246 140.252 10.5684C139.9 10.4056 139.497 10.3242 139.041 10.3242C138.436 10.3242 137.977 10.4056 137.664 10.5684C137.358 10.7311 137.042 10.9525 136.717 11.2324ZM149.637 11.2129V12.6973H144.871V11.2129H149.637ZM158.143 3.76172H158.299V5.29492H158.143C157.186 5.29492 156.385 5.45117 155.74 5.76367C155.096 6.06966 154.585 6.48307 154.207 7.00391C153.829 7.51823 153.556 8.09766 153.387 8.74219C153.224 9.38672 153.143 10.041 153.143 10.7051V12.7949C153.143 13.4264 153.217 13.9863 153.367 14.4746C153.517 14.9564 153.722 15.3633 153.982 15.6953C154.243 16.0273 154.536 16.278 154.861 16.4473C155.193 16.6165 155.538 16.7012 155.896 16.7012C156.313 16.7012 156.684 16.623 157.01 16.4668C157.335 16.304 157.609 16.0794 157.83 15.793C158.058 15.5 158.23 15.1549 158.348 14.7578C158.465 14.3607 158.523 13.9245 158.523 13.4492C158.523 13.026 158.471 12.6191 158.367 12.2285C158.263 11.8314 158.104 11.4798 157.889 11.1738C157.674 10.8613 157.404 10.6172 157.078 10.4414C156.759 10.2591 156.378 10.168 155.936 10.168C155.434 10.168 154.965 10.2917 154.529 10.5391C154.1 10.7799 153.745 11.099 153.465 11.4961C153.191 11.8867 153.035 12.3132 152.996 12.7754L152.039 12.7656C152.13 12.0365 152.299 11.4147 152.547 10.9004C152.801 10.3796 153.113 9.95638 153.484 9.63086C153.862 9.29883 154.282 9.05794 154.744 8.9082C155.213 8.75195 155.708 8.67383 156.229 8.67383C156.938 8.67383 157.55 8.80729 158.064 9.07422C158.579 9.34115 159.002 9.69922 159.334 10.1484C159.666 10.5911 159.91 11.0924 160.066 11.6523C160.229 12.2057 160.311 12.7754 160.311 13.3613C160.311 14.0319 160.216 14.6602 160.027 15.2461C159.839 15.832 159.555 16.3464 159.178 16.7891C158.807 17.2318 158.348 17.5768 157.801 17.8242C157.254 18.0716 156.619 18.1953 155.896 18.1953C155.128 18.1953 154.458 18.0391 153.885 17.7266C153.312 17.4076 152.837 16.9844 152.459 16.457C152.081 15.9297 151.798 15.3438 151.609 14.6992C151.421 14.0547 151.326 13.4004 151.326 12.7363V11.8867C151.326 10.8841 151.427 9.90104 151.629 8.9375C151.831 7.97396 152.179 7.10156 152.674 6.32031C153.175 5.53906 153.868 4.91732 154.754 4.45508C155.639 3.99284 156.769 3.76172 158.143 3.76172ZM171.775 16.5156V18H162.469V16.7012L167.127 11.5156C167.7 10.8776 168.143 10.3372 168.455 9.89453C168.774 9.44531 168.995 9.04492 169.119 8.69336C169.249 8.33529 169.314 7.9707 169.314 7.59961C169.314 7.13086 169.217 6.70768 169.021 6.33008C168.833 5.94596 168.553 5.63997 168.182 5.41211C167.811 5.18424 167.361 5.07031 166.834 5.07031C166.202 5.07031 165.675 5.19401 165.252 5.44141C164.835 5.68229 164.523 6.02083 164.314 6.45703C164.106 6.89323 164.002 7.39453 164.002 7.96094H162.195C162.195 7.16016 162.371 6.42773 162.723 5.76367C163.074 5.09961 163.595 4.57227 164.285 4.18164C164.975 3.78451 165.825 3.58594 166.834 3.58594C167.732 3.58594 168.501 3.74544 169.139 4.06445C169.777 4.37695 170.265 4.81966 170.604 5.39258C170.949 5.95898 171.121 6.62305 171.121 7.38477C171.121 7.80143 171.049 8.22461 170.906 8.6543C170.77 9.07747 170.577 9.50065 170.33 9.92383C170.089 10.347 169.806 10.7637 169.48 11.1738C169.161 11.584 168.82 11.9876 168.455 12.3848L164.646 16.5156H171.775ZM177.664 11.2129V12.6973H172.898V11.2129H177.664ZM188.162 9.75781V11.9258C188.162 13.0911 188.058 14.0742 187.85 14.875C187.641 15.6758 187.342 16.3203 186.951 16.8086C186.561 17.2969 186.089 17.6517 185.535 17.873C184.988 18.0879 184.37 18.1953 183.68 18.1953C183.133 18.1953 182.628 18.127 182.166 17.9902C181.704 17.8535 181.287 17.6354 180.916 17.3359C180.551 17.0299 180.239 16.6328 179.979 16.1445C179.718 15.6562 179.52 15.0638 179.383 14.3672C179.246 13.6706 179.178 12.8568 179.178 11.9258V9.75781C179.178 8.59245 179.282 7.61589 179.49 6.82812C179.705 6.04036 180.008 5.40885 180.398 4.93359C180.789 4.45182 181.258 4.10677 181.805 3.89844C182.358 3.6901 182.977 3.58594 183.66 3.58594C184.214 3.58594 184.721 3.6543 185.184 3.79102C185.652 3.92122 186.069 4.13281 186.434 4.42578C186.798 4.71224 187.107 5.09635 187.361 5.57812C187.622 6.05339 187.82 6.63607 187.957 7.32617C188.094 8.01628 188.162 8.82682 188.162 9.75781ZM186.346 12.2188V9.45508C186.346 8.81706 186.307 8.25716 186.229 7.77539C186.157 7.28711 186.049 6.87044 185.906 6.52539C185.763 6.18034 185.581 5.90039 185.359 5.68555C185.145 5.4707 184.894 5.31445 184.607 5.2168C184.327 5.11263 184.012 5.06055 183.66 5.06055C183.23 5.06055 182.85 5.14193 182.518 5.30469C182.186 5.46094 181.906 5.71159 181.678 6.05664C181.456 6.40169 181.287 6.85417 181.17 7.41406C181.053 7.97396 180.994 8.6543 180.994 9.45508V12.2188C180.994 12.8568 181.03 13.4199 181.102 13.9082C181.18 14.3965 181.294 14.8197 181.443 15.1777C181.593 15.5293 181.775 15.819 181.99 16.0469C182.205 16.2747 182.452 16.444 182.732 16.5547C183.019 16.6589 183.335 16.7109 183.68 16.7109C184.122 16.7109 184.51 16.6263 184.842 16.457C185.174 16.2878 185.451 16.0241 185.672 15.666C185.9 15.3014 186.069 14.8359 186.18 14.2695C186.29 13.6966 186.346 13.013 186.346 12.2188ZM199.412 9.75781V11.9258C199.412 13.0911 199.308 14.0742 199.1 14.875C198.891 15.6758 198.592 16.3203 198.201 16.8086C197.811 17.2969 197.339 17.6517 196.785 17.873C196.238 18.0879 195.62 18.1953 194.93 18.1953C194.383 18.1953 193.878 18.127 193.416 17.9902C192.954 17.8535 192.537 17.6354 192.166 17.3359C191.801 17.0299 191.489 16.6328 191.229 16.1445C190.968 15.6562 190.77 15.0638 190.633 14.3672C190.496 13.6706 190.428 12.8568 190.428 11.9258V9.75781C190.428 8.59245 190.532 7.61589 190.74 6.82812C190.955 6.04036 191.258 5.40885 191.648 4.93359C192.039 4.45182 192.508 4.10677 193.055 3.89844C193.608 3.6901 194.227 3.58594 194.91 3.58594C195.464 3.58594 195.971 3.6543 196.434 3.79102C196.902 3.92122 197.319 4.13281 197.684 4.42578C198.048 4.71224 198.357 5.09635 198.611 5.57812C198.872 6.05339 199.07 6.63607 199.207 7.32617C199.344 8.01628 199.412 8.82682 199.412 9.75781ZM197.596 12.2188V9.45508C197.596 8.81706 197.557 8.25716 197.479 7.77539C197.407 7.28711 197.299 6.87044 197.156 6.52539C197.013 6.18034 196.831 5.90039 196.609 5.68555C196.395 5.4707 196.144 5.31445 195.857 5.2168C195.577 5.11263 195.262 5.06055 194.91 5.06055C194.48 5.06055 194.1 5.14193 193.768 5.30469C193.436 5.46094 193.156 5.71159 192.928 6.05664C192.706 6.40169 192.537 6.85417 192.42 7.41406C192.303 7.97396 192.244 8.6543 192.244 9.45508V12.2188C192.244 12.8568 192.28 13.4199 192.352 13.9082C192.43 14.3965 192.544 14.8197 192.693 15.1777C192.843 15.5293 193.025 15.819 193.24 16.0469C193.455 16.2747 193.702 16.444 193.982 16.5547C194.269 16.6589 194.585 16.7109 194.93 16.7109C195.372 16.7109 195.76 16.6263 196.092 16.457C196.424 16.2878 196.701 16.0241 196.922 15.666C197.15 15.3014 197.319 14.8359 197.43 14.2695C197.54 13.6966 197.596 13.013 197.596 12.2188Z" fill="white"/>
<path d="M52.1465 41.1523C52.1465 42.0182 51.9447 42.7539 51.541 43.3594C51.1439 43.9583 50.6035 44.4141 49.9199 44.7266C49.2428 45.0391 48.4779 45.1953 47.625 45.1953C46.7721 45.1953 46.0039 45.0391 45.3203 44.7266C44.6367 44.4141 44.0964 43.9583 43.6992 43.3594C43.3021 42.7539 43.1035 42.0182 43.1035 41.1523C43.1035 40.5859 43.2109 40.0684 43.4258 39.5996C43.6471 39.1243 43.9564 38.7109 44.3535 38.3594C44.7572 38.0078 45.2324 37.7376 45.7793 37.5488C46.3327 37.3535 46.9414 37.2559 47.6055 37.2559C48.4779 37.2559 49.2559 37.4251 49.9395 37.7637C50.623 38.0957 51.1602 38.5547 51.5508 39.1406C51.9479 39.7266 52.1465 40.3971 52.1465 41.1523ZM50.3301 41.1133C50.3301 40.5859 50.2161 40.1204 49.9883 39.7168C49.7604 39.3066 49.4414 38.9876 49.0312 38.7598C48.6211 38.5319 48.1458 38.418 47.6055 38.418C47.0521 38.418 46.5736 38.5319 46.1699 38.7598C45.7728 38.9876 45.4635 39.3066 45.2422 39.7168C45.0208 40.1204 44.9102 40.5859 44.9102 41.1133C44.9102 41.6602 45.0176 42.1289 45.2324 42.5195C45.4538 42.9036 45.7663 43.1999 46.1699 43.4082C46.5801 43.61 47.0651 43.7109 47.625 43.7109C48.1849 43.7109 48.6667 43.61 49.0703 43.4082C49.474 43.1999 49.7832 42.9036 49.998 42.5195C50.2194 42.1289 50.3301 41.6602 50.3301 41.1133ZM51.8145 34.4824C51.8145 35.1725 51.6322 35.7943 51.2676 36.3477C50.903 36.901 50.4049 37.3372 49.7734 37.6562C49.1419 37.9753 48.4258 38.1348 47.625 38.1348C46.8112 38.1348 46.0853 37.9753 45.4473 37.6562C44.8158 37.3372 44.321 36.901 43.9629 36.3477C43.6048 35.7943 43.4258 35.1725 43.4258 34.4824C43.4258 33.6556 43.6048 32.9525 43.9629 32.373C44.3275 31.7936 44.8255 31.3509 45.457 31.0449C46.0885 30.7389 46.8079 30.5859 47.6152 30.5859C48.429 30.5859 49.1517 30.7389 49.7832 31.0449C50.4147 31.3509 50.9095 31.7936 51.2676 32.373C51.6322 32.9525 51.8145 33.6556 51.8145 34.4824ZM50.0078 34.5117C50.0078 34.0365 49.9069 33.6165 49.7051 33.252C49.5033 32.8874 49.2233 32.6009 48.8652 32.3926C48.5072 32.1777 48.0905 32.0703 47.6152 32.0703C47.14 32.0703 46.7233 32.1712 46.3652 32.373C46.0137 32.5684 45.737 32.8483 45.5352 33.2129C45.3398 33.5775 45.2422 34.0104 45.2422 34.5117C45.2422 35 45.3398 35.4264 45.5352 35.791C45.737 36.1556 46.0169 36.4388 46.375 36.6406C46.7331 36.8424 47.1497 36.9434 47.625 36.9434C48.1003 36.9434 48.5137 36.8424 48.8652 36.6406C49.2233 36.4388 49.5033 36.1556 49.7051 35.791C49.9069 35.4264 50.0078 35 50.0078 34.5117ZM59.5195 39.3164V39.2188C59.5195 37.7995 59.679 36.5169 59.998 35.3711C60.3171 34.2188 60.724 33.2096 61.2188 32.3438C61.7135 31.4779 62.2344 30.7617 62.7812 30.1953C63.3281 29.6224 63.8327 29.209 64.2949 28.9551L64.6758 30.1465C64.2917 30.4395 63.901 30.8431 63.5039 31.3574C63.1133 31.8717 62.752 32.5033 62.4199 33.252C62.0944 34.0007 61.8307 34.8698 61.6289 35.8594C61.4271 36.849 61.3262 37.9622 61.3262 39.1992V39.3359C61.3262 40.5729 61.4271 41.6895 61.6289 42.6855C61.8307 43.6751 62.0944 44.5475 62.4199 45.3027C62.752 46.0579 63.1133 46.6992 63.5039 47.2266C63.901 47.7604 64.2917 48.1836 64.6758 48.4961L64.2949 49.5898C63.8327 49.3359 63.3281 48.9225 62.7812 48.3496C62.2344 47.7832 61.7135 47.0671 61.2188 46.2012C60.724 45.3418 60.3171 44.3359 59.998 43.1836C59.679 42.0312 59.5195 40.7422 59.5195 39.3164ZM68.0449 43.4863H68.2305C69.2721 43.4863 70.1185 43.3398 70.7695 43.0469C71.4206 42.7539 71.9219 42.36 72.2734 41.8652C72.625 41.3704 72.8659 40.8138 72.9961 40.1953C73.1263 39.5703 73.1914 38.929 73.1914 38.2715V36.0938C73.1914 35.4492 73.1165 34.8763 72.9668 34.375C72.8236 33.8737 72.6217 33.4538 72.3613 33.1152C72.1074 32.7767 71.8177 32.5195 71.4922 32.3438C71.1667 32.168 70.8216 32.0801 70.457 32.0801C70.0404 32.0801 69.666 32.1647 69.334 32.334C69.0085 32.4967 68.7318 32.7279 68.5039 33.0273C68.2826 33.3268 68.1133 33.6784 67.9961 34.082C67.8789 34.4857 67.8203 34.9251 67.8203 35.4004C67.8203 35.8236 67.8724 36.2337 67.9766 36.6309C68.0807 37.028 68.2402 37.3861 68.4551 37.7051C68.6699 38.0241 68.9368 38.278 69.2559 38.4668C69.5814 38.6491 69.9622 38.7402 70.3984 38.7402C70.8021 38.7402 71.1797 38.6621 71.5312 38.5059C71.8893 38.3431 72.2051 38.125 72.4785 37.8516C72.7585 37.5716 72.9798 37.2559 73.1426 36.9043C73.3118 36.5527 73.4095 36.1849 73.4355 35.8008H74.2949C74.2949 36.3411 74.1875 36.875 73.9727 37.4023C73.7643 37.9232 73.4714 38.3984 73.0938 38.8281C72.7161 39.2578 72.2734 39.6029 71.7656 39.8633C71.2578 40.1172 70.7044 40.2441 70.1055 40.2441C69.4023 40.2441 68.7936 40.1074 68.2793 39.834C67.765 39.5605 67.3418 39.196 67.0098 38.7402C66.6842 38.2845 66.4401 37.7767 66.2773 37.2168C66.1211 36.6504 66.043 36.0775 66.043 35.498C66.043 34.821 66.1374 34.1862 66.3262 33.5938C66.515 33.0013 66.7949 32.4805 67.166 32.0312C67.5371 31.5755 67.9961 31.2207 68.543 30.9668C69.0964 30.7129 69.7344 30.5859 70.457 30.5859C71.2708 30.5859 71.9642 30.7487 72.5371 31.0742C73.11 31.3997 73.5755 31.8359 73.9336 32.3828C74.2982 32.9297 74.5651 33.5449 74.7344 34.2285C74.9036 34.9121 74.9883 35.6152 74.9883 36.3379V36.9922C74.9883 37.7279 74.9395 38.4766 74.8418 39.2383C74.7507 39.9935 74.5716 40.7161 74.3047 41.4062C74.0443 42.0964 73.6634 42.7148 73.1621 43.2617C72.6608 43.8021 72.0065 44.2318 71.1992 44.5508C70.3984 44.8633 69.4089 45.0195 68.2305 45.0195H68.0449V43.4863ZM84.4316 30.7617H84.5879V32.2949H84.4316C83.4746 32.2949 82.6738 32.4512 82.0293 32.7637C81.3848 33.0697 80.8737 33.4831 80.4961 34.0039C80.1185 34.5182 79.8451 35.0977 79.6758 35.7422C79.513 36.3867 79.4316 37.041 79.4316 37.7051V39.7949C79.4316 40.4264 79.5065 40.9863 79.6562 41.4746C79.806 41.9564 80.0111 42.3633 80.2715 42.6953C80.5319 43.0273 80.8249 43.278 81.1504 43.4473C81.4824 43.6165 81.8275 43.7012 82.1855 43.7012C82.6022 43.7012 82.9733 43.623 83.2988 43.4668C83.6243 43.304 83.8978 43.0794 84.1191 42.793C84.347 42.5 84.5195 42.1549 84.6367 41.7578C84.7539 41.3607 84.8125 40.9245 84.8125 40.4492C84.8125 40.026 84.7604 39.6191 84.6562 39.2285C84.5521 38.8314 84.3926 38.4798 84.1777 38.1738C83.9629 37.8613 83.6927 37.6172 83.3672 37.4414C83.0482 37.2591 82.6673 37.168 82.2246 37.168C81.7233 37.168 81.2546 37.2917 80.8184 37.5391C80.3887 37.7799 80.0339 38.099 79.7539 38.4961C79.4805 38.8867 79.3242 39.3132 79.2852 39.7754L78.3281 39.7656C78.4193 39.0365 78.5885 38.4147 78.8359 37.9004C79.0898 37.3796 79.4023 36.9564 79.7734 36.6309C80.151 36.2988 80.571 36.0579 81.0332 35.9082C81.502 35.752 81.9967 35.6738 82.5176 35.6738C83.2272 35.6738 83.8392 35.8073 84.3535 36.0742C84.8678 36.3411 85.291 36.6992 85.623 37.1484C85.9551 37.5911 86.1992 38.0924 86.3555 38.6523C86.5182 39.2057 86.5996 39.7754 86.5996 40.3613C86.5996 41.0319 86.5052 41.6602 86.3164 42.2461C86.1276 42.832 85.8444 43.3464 85.4668 43.7891C85.0957 44.2318 84.6367 44.5768 84.0898 44.8242C83.543 45.0716 82.9082 45.1953 82.1855 45.1953C81.4173 45.1953 80.7467 45.0391 80.1738 44.7266C79.6009 44.4076 79.1257 43.9844 78.748 43.457C78.3704 42.9297 78.0872 42.3438 77.8984 41.6992C77.7096 41.0547 77.6152 40.4004 77.6152 39.7363V38.8867C77.6152 37.8841 77.7161 36.901 77.918 35.9375C78.1198 34.974 78.4681 34.1016 78.9629 33.3203C79.4642 32.5391 80.1576 31.9173 81.043 31.4551C81.9284 30.9928 83.0579 30.7617 84.4316 30.7617ZM97.6738 36.7578V38.9258C97.6738 40.0911 97.5697 41.0742 97.3613 41.875C97.153 42.6758 96.8535 43.3203 96.4629 43.8086C96.0723 44.2969 95.6003 44.6517 95.0469 44.873C94.5 45.0879 93.8815 45.1953 93.1914 45.1953C92.6445 45.1953 92.14 45.127 91.6777 44.9902C91.2155 44.8535 90.7988 44.6354 90.4277 44.3359C90.0632 44.0299 89.7507 43.6328 89.4902 43.1445C89.2298 42.6562 89.0312 42.0638 88.8945 41.3672C88.7578 40.6706 88.6895 39.8568 88.6895 38.9258V36.7578C88.6895 35.5924 88.7936 34.6159 89.002 33.8281C89.2168 33.0404 89.5195 32.4089 89.9102 31.9336C90.3008 31.4518 90.7695 31.1068 91.3164 30.8984C91.8698 30.6901 92.4883 30.5859 93.1719 30.5859C93.7253 30.5859 94.2331 30.6543 94.6953 30.791C95.1641 30.9212 95.5807 31.1328 95.9453 31.4258C96.3099 31.7122 96.6191 32.0964 96.873 32.5781C97.1335 33.0534 97.332 33.6361 97.4688 34.3262C97.6055 35.0163 97.6738 35.8268 97.6738 36.7578ZM95.8574 39.2188V36.4551C95.8574 35.8171 95.8184 35.2572 95.7402 34.7754C95.6686 34.2871 95.5612 33.8704 95.418 33.5254C95.2747 33.1803 95.0924 32.9004 94.8711 32.6855C94.6562 32.4707 94.4056 32.3145 94.1191 32.2168C93.8392 32.1126 93.5234 32.0605 93.1719 32.0605C92.7422 32.0605 92.3613 32.1419 92.0293 32.3047C91.6973 32.4609 91.4173 32.7116 91.1895 33.0566C90.9681 33.4017 90.7988 33.8542 90.6816 34.4141C90.5645 34.974 90.5059 35.6543 90.5059 36.4551V39.2188C90.5059 39.8568 90.5417 40.4199 90.6133 40.9082C90.6914 41.3965 90.8053 41.8197 90.9551 42.1777C91.1048 42.5293 91.2871 42.819 91.502 43.0469C91.7168 43.2747 91.9642 43.444 92.2441 43.5547C92.5306 43.6589 92.8464 43.7109 93.1914 43.7109C93.6341 43.7109 94.0215 43.6263 94.3535 43.457C94.6855 43.2878 94.9622 43.0241 95.1836 42.666C95.4115 42.3014 95.5807 41.8359 95.6914 41.2695C95.8021 40.6966 95.8574 40.013 95.8574 39.2188ZM104.354 39.2188V39.3164C104.354 40.7422 104.194 42.0312 103.875 43.1836C103.556 44.3359 103.149 45.3418 102.654 46.2012C102.16 47.0671 101.639 47.7832 101.092 48.3496C100.545 48.9225 100.04 49.3359 99.5781 49.5898L99.1973 48.4961C99.5814 48.2031 99.9688 47.793 100.359 47.2656C100.75 46.7448 101.111 46.1003 101.443 45.332C101.775 44.5703 102.042 43.6914 102.244 42.6953C102.446 41.6927 102.547 40.5729 102.547 39.3359V39.1992C102.547 37.9622 102.439 36.8457 102.225 35.8496C102.01 34.847 101.73 33.9648 101.385 33.2031C101.046 32.4414 100.682 31.8001 100.291 31.2793C99.9069 30.752 99.5423 30.3451 99.1973 30.0586L99.5781 28.9551C100.04 29.209 100.545 29.6224 101.092 30.1953C101.639 30.7617 102.16 31.4779 102.654 32.3438C103.149 33.2096 103.556 34.2188 103.875 35.3711C104.194 36.5169 104.354 37.7995 104.354 39.2188ZM118.865 30.7617H119.021V32.2949H118.865C117.908 32.2949 117.107 32.4512 116.463 32.7637C115.818 33.0697 115.307 33.4831 114.93 34.0039C114.552 34.5182 114.279 35.0977 114.109 35.7422C113.947 36.3867 113.865 37.041 113.865 37.7051V39.7949C113.865 40.4264 113.94 40.9863 114.09 41.4746C114.24 41.9564 114.445 42.3633 114.705 42.6953C114.965 43.0273 115.258 43.278 115.584 43.4473C115.916 43.6165 116.261 43.7012 116.619 43.7012C117.036 43.7012 117.407 43.623 117.732 43.4668C118.058 43.304 118.331 43.0794 118.553 42.793C118.781 42.5 118.953 42.1549 119.07 41.7578C119.188 41.3607 119.246 40.9245 119.246 40.4492C119.246 40.026 119.194 39.6191 119.09 39.2285C118.986 38.8314 118.826 38.4798 118.611 38.1738C118.396 37.8613 118.126 37.6172 117.801 37.4414C117.482 37.2591 117.101 37.168 116.658 37.168C116.157 37.168 115.688 37.2917 115.252 37.5391C114.822 37.7799 114.467 38.099 114.188 38.4961C113.914 38.8867 113.758 39.3132 113.719 39.7754L112.762 39.7656C112.853 39.0365 113.022 38.4147 113.27 37.9004C113.523 37.3796 113.836 36.9564 114.207 36.6309C114.585 36.2988 115.005 36.0579 115.467 35.9082C115.936 35.752 116.43 35.6738 116.951 35.6738C117.661 35.6738 118.273 35.8073 118.787 36.0742C119.301 36.3411 119.725 36.6992 120.057 37.1484C120.389 37.5911 120.633 38.0924 120.789 38.6523C120.952 39.2057 121.033 39.7754 121.033 40.3613C121.033 41.0319 120.939 41.6602 120.75 42.2461C120.561 42.832 120.278 43.3464 119.9 43.7891C119.529 44.2318 119.07 44.5768 118.523 44.8242C117.977 45.0716 117.342 45.1953 116.619 45.1953C115.851 45.1953 115.18 45.0391 114.607 44.7266C114.035 44.4076 113.559 43.9844 113.182 43.457C112.804 42.9297 112.521 42.3438 112.332 41.6992C112.143 41.0547 112.049 40.4004 112.049 39.7363V38.8867C112.049 37.8841 112.15 36.901 112.352 35.9375C112.553 34.974 112.902 34.1016 113.396 33.3203C113.898 32.5391 114.591 31.9173 115.477 31.4551C116.362 30.9928 117.492 30.7617 118.865 30.7617ZM132.107 36.7578V38.9258C132.107 40.0911 132.003 41.0742 131.795 41.875C131.587 42.6758 131.287 43.3203 130.896 43.8086C130.506 44.2969 130.034 44.6517 129.48 44.873C128.934 45.0879 128.315 45.1953 127.625 45.1953C127.078 45.1953 126.574 45.127 126.111 44.9902C125.649 44.8535 125.232 44.6354 124.861 44.3359C124.497 44.0299 124.184 43.6328 123.924 43.1445C123.663 42.6562 123.465 42.0638 123.328 41.3672C123.191 40.6706 123.123 39.8568 123.123 38.9258V36.7578C123.123 35.5924 123.227 34.6159 123.436 33.8281C123.65 33.0404 123.953 32.4089 124.344 31.9336C124.734 31.4518 125.203 31.1068 125.75 30.8984C126.303 30.6901 126.922 30.5859 127.605 30.5859C128.159 30.5859 128.667 30.6543 129.129 30.791C129.598 30.9212 130.014 31.1328 130.379 31.4258C130.743 31.7122 131.053 32.0964 131.307 32.5781C131.567 33.0534 131.766 33.6361 131.902 34.3262C132.039 35.0163 132.107 35.8268 132.107 36.7578ZM130.291 39.2188V36.4551C130.291 35.8171 130.252 35.2572 130.174 34.7754C130.102 34.2871 129.995 33.8704 129.852 33.5254C129.708 33.1803 129.526 32.9004 129.305 32.6855C129.09 32.4707 128.839 32.3145 128.553 32.2168C128.273 32.1126 127.957 32.0605 127.605 32.0605C127.176 32.0605 126.795 32.1419 126.463 32.3047C126.131 32.4609 125.851 32.7116 125.623 33.0566C125.402 33.4017 125.232 33.8542 125.115 34.4141C124.998 34.974 124.939 35.6543 124.939 36.4551V39.2188C124.939 39.8568 124.975 40.4199 125.047 40.9082C125.125 41.3965 125.239 41.8197 125.389 42.1777C125.538 42.5293 125.721 42.819 125.936 43.0469C126.15 43.2747 126.398 43.444 126.678 43.5547C126.964 43.6589 127.28 43.7109 127.625 43.7109C128.068 43.7109 128.455 43.6263 128.787 43.457C129.119 43.2878 129.396 43.0241 129.617 42.666C129.845 42.3014 130.014 41.8359 130.125 41.2695C130.236 40.6966 130.291 40.013 130.291 39.2188ZM136.229 43.4863H136.414C137.456 43.4863 138.302 43.3398 138.953 43.0469C139.604 42.7539 140.105 42.36 140.457 41.8652C140.809 41.3704 141.049 40.8138 141.18 40.1953C141.31 39.5703 141.375 38.929 141.375 38.2715V36.0938C141.375 35.4492 141.3 34.8763 141.15 34.375C141.007 33.8737 140.805 33.4538 140.545 33.1152C140.291 32.7767 140.001 32.5195 139.676 32.3438C139.35 32.168 139.005 32.0801 138.641 32.0801C138.224 32.0801 137.85 32.1647 137.518 32.334C137.192 32.4967 136.915 32.7279 136.688 33.0273C136.466 33.3268 136.297 33.6784 136.18 34.082C136.062 34.4857 136.004 34.9251 136.004 35.4004C136.004 35.8236 136.056 36.2337 136.16 36.6309C136.264 37.028 136.424 37.3861 136.639 37.7051C136.854 38.0241 137.12 38.278 137.439 38.4668C137.765 38.6491 138.146 38.7402 138.582 38.7402C138.986 38.7402 139.363 38.6621 139.715 38.5059C140.073 38.3431 140.389 38.125 140.662 37.8516C140.942 37.5716 141.163 37.2559 141.326 36.9043C141.495 36.5527 141.593 36.1849 141.619 35.8008H142.479C142.479 36.3411 142.371 36.875 142.156 37.4023C141.948 37.9232 141.655 38.3984 141.277 38.8281C140.9 39.2578 140.457 39.6029 139.949 39.8633C139.441 40.1172 138.888 40.2441 138.289 40.2441C137.586 40.2441 136.977 40.1074 136.463 39.834C135.949 39.5605 135.525 39.196 135.193 38.7402C134.868 38.2845 134.624 37.7767 134.461 37.2168C134.305 36.6504 134.227 36.0775 134.227 35.498C134.227 34.821 134.321 34.1862 134.51 33.5938C134.699 33.0013 134.979 32.4805 135.35 32.0312C135.721 31.5755 136.18 31.2207 136.727 30.9668C137.28 30.7129 137.918 30.5859 138.641 30.5859C139.454 30.5859 140.148 30.7487 140.721 31.0742C141.294 31.3997 141.759 31.8359 142.117 32.3828C142.482 32.9297 142.749 33.5449 142.918 34.2285C143.087 34.9121 143.172 35.6152 143.172 36.3379V36.9922C143.172 37.7279 143.123 38.4766 143.025 39.2383C142.934 39.9935 142.755 40.7161 142.488 41.4062C142.228 42.0964 141.847 42.7148 141.346 43.2617C140.844 43.8021 140.19 44.2318 139.383 44.5508C138.582 44.8633 137.592 45.0195 136.414 45.0195H136.229V43.4863ZM149.637 38.2129V39.6973H144.871V38.2129H149.637ZM160.525 43.5156V45H151.219V43.7012L155.877 38.5156C156.45 37.8776 156.893 37.3372 157.205 36.8945C157.524 36.4453 157.745 36.0449 157.869 35.6934C157.999 35.3353 158.064 34.9707 158.064 34.5996C158.064 34.1309 157.967 33.7077 157.771 33.3301C157.583 32.946 157.303 32.64 156.932 32.4121C156.561 32.1842 156.111 32.0703 155.584 32.0703C154.952 32.0703 154.425 32.194 154.002 32.4414C153.585 32.6823 153.273 33.0208 153.064 33.457C152.856 33.8932 152.752 34.3945 152.752 34.9609H150.945C150.945 34.1602 151.121 33.4277 151.473 32.7637C151.824 32.0996 152.345 31.5723 153.035 31.1816C153.725 30.7845 154.575 30.5859 155.584 30.5859C156.482 30.5859 157.251 30.7454 157.889 31.0645C158.527 31.377 159.015 31.8197 159.354 32.3926C159.699 32.959 159.871 33.623 159.871 34.3848C159.871 34.8014 159.799 35.2246 159.656 35.6543C159.52 36.0775 159.327 36.5007 159.08 36.9238C158.839 37.347 158.556 37.7637 158.23 38.1738C157.911 38.584 157.57 38.9876 157.205 39.3848L153.396 43.5156H160.525ZM164.256 43.4863H164.441C165.483 43.4863 166.329 43.3398 166.98 43.0469C167.632 42.7539 168.133 42.36 168.484 41.8652C168.836 41.3704 169.077 40.8138 169.207 40.1953C169.337 39.5703 169.402 38.929 169.402 38.2715V36.0938C169.402 35.4492 169.327 34.8763 169.178 34.375C169.035 33.8737 168.833 33.4538 168.572 33.1152C168.318 32.7767 168.029 32.5195 167.703 32.3438C167.378 32.168 167.033 32.0801 166.668 32.0801C166.251 32.0801 165.877 32.1647 165.545 32.334C165.219 32.4967 164.943 32.7279 164.715 33.0273C164.493 33.3268 164.324 33.6784 164.207 34.082C164.09 34.4857 164.031 34.9251 164.031 35.4004C164.031 35.8236 164.083 36.2337 164.188 36.6309C164.292 37.028 164.451 37.3861 164.666 37.7051C164.881 38.0241 165.148 38.278 165.467 38.4668C165.792 38.6491 166.173 38.7402 166.609 38.7402C167.013 38.7402 167.391 38.6621 167.742 38.5059C168.1 38.3431 168.416 38.125 168.689 37.8516C168.969 37.5716 169.191 37.2559 169.354 36.9043C169.523 36.5527 169.62 36.1849 169.646 35.8008H170.506C170.506 36.3411 170.398 36.875 170.184 37.4023C169.975 37.9232 169.682 38.3984 169.305 38.8281C168.927 39.2578 168.484 39.6029 167.977 39.8633C167.469 40.1172 166.915 40.2441 166.316 40.2441C165.613 40.2441 165.005 40.1074 164.49 39.834C163.976 39.5605 163.553 39.196 163.221 38.7402C162.895 38.2845 162.651 37.7767 162.488 37.2168C162.332 36.6504 162.254 36.0775 162.254 35.498C162.254 34.821 162.348 34.1862 162.537 33.5938C162.726 33.0013 163.006 32.4805 163.377 32.0312C163.748 31.5755 164.207 31.2207 164.754 30.9668C165.307 30.7129 165.945 30.5859 166.668 30.5859C167.482 30.5859 168.175 30.7487 168.748 31.0742C169.321 31.3997 169.786 31.8359 170.145 32.3828C170.509 32.9297 170.776 33.5449 170.945 34.2285C171.115 34.9121 171.199 35.6152 171.199 36.3379V36.9922C171.199 37.7279 171.15 38.4766 171.053 39.2383C170.962 39.9935 170.783 40.7161 170.516 41.4062C170.255 42.0964 169.874 42.7148 169.373 43.2617C168.872 43.8021 168.217 44.2318 167.41 44.5508C166.609 44.8633 165.62 45.0195 164.441 45.0195H164.256V43.4863ZM177.664 38.2129V39.6973H172.898V38.2129H177.664ZM188.162 36.7578V38.9258C188.162 40.0911 188.058 41.0742 187.85 41.875C187.641 42.6758 187.342 43.3203 186.951 43.8086C186.561 44.2969 186.089 44.6517 185.535 44.873C184.988 45.0879 184.37 45.1953 183.68 45.1953C183.133 45.1953 182.628 45.127 182.166 44.9902C181.704 44.8535 181.287 44.6354 180.916 44.3359C180.551 44.0299 180.239 43.6328 179.979 43.1445C179.718 42.6562 179.52 42.0638 179.383 41.3672C179.246 40.6706 179.178 39.8568 179.178 38.9258V36.7578C179.178 35.5924 179.282 34.6159 179.49 33.8281C179.705 33.0404 180.008 32.4089 180.398 31.9336C180.789 31.4518 181.258 31.1068 181.805 30.8984C182.358 30.6901 182.977 30.5859 183.66 30.5859C184.214 30.5859 184.721 30.6543 185.184 30.791C185.652 30.9212 186.069 31.1328 186.434 31.4258C186.798 31.7122 187.107 32.0964 187.361 32.5781C187.622 33.0534 187.82 33.6361 187.957 34.3262C188.094 35.0163 188.162 35.8268 188.162 36.7578ZM186.346 39.2188V36.4551C186.346 35.8171 186.307 35.2572 186.229 34.7754C186.157 34.2871 186.049 33.8704 185.906 33.5254C185.763 33.1803 185.581 32.9004 185.359 32.6855C185.145 32.4707 184.894 32.3145 184.607 32.2168C184.327 32.1126 184.012 32.0605 183.66 32.0605C183.23 32.0605 182.85 32.1419 182.518 32.3047C182.186 32.4609 181.906 32.7116 181.678 33.0566C181.456 33.4017 181.287 33.8542 181.17 34.4141C181.053 34.974 180.994 35.6543 180.994 36.4551V39.2188C180.994 39.8568 181.03 40.4199 181.102 40.9082C181.18 41.3965 181.294 41.8197 181.443 42.1777C181.593 42.5293 181.775 42.819 181.99 43.0469C182.205 43.2747 182.452 43.444 182.732 43.5547C183.019 43.6589 183.335 43.7109 183.68 43.7109C184.122 43.7109 184.51 43.6263 184.842 43.457C185.174 43.2878 185.451 43.0241 185.672 42.666C185.9 42.3014 186.069 41.8359 186.18 41.2695C186.29 40.6966 186.346 40.013 186.346 39.2188ZM199.676 30.7812V31.7969L193.787 45H191.883L197.762 32.2656H190.066V30.7812H199.676Z" fill="white"/>
<path d="M50.2578 61.625V62.8594H44.7734V73H43.2734V61.625H50.2578ZM44.4219 66.2578H47.5234C48.3568 66.2578 49.0599 66.3984 49.6328 66.6797C50.2057 66.9557 50.6406 67.3438 50.9375 67.8438C51.2344 68.3438 51.3828 68.9297 51.3828 69.6016C51.3828 70.1016 51.2995 70.5599 51.1328 70.9766C50.9661 71.388 50.7188 71.7474 50.3906 72.0547C50.0625 72.3568 49.6589 72.5911 49.1797 72.7578C48.7005 72.9193 48.1484 73 47.5234 73H43.2734V61.625H44.7812V71.7734H47.5234C48.0807 71.7734 48.5312 71.6719 48.875 71.4688C49.224 71.2604 49.4792 70.9896 49.6406 70.6562C49.8021 70.3229 49.8828 69.9661 49.8828 69.5859C49.8828 69.2057 49.8021 68.8568 49.6406 68.5391C49.4792 68.2214 49.224 67.9688 48.875 67.7812C48.5312 67.5885 48.0807 67.4922 47.5234 67.4922H44.4219V66.2578ZM56.7031 73.1562C56.1146 73.1562 55.5807 73.0573 55.1016 72.8594C54.6276 72.6562 54.2188 72.3724 53.875 72.0078C53.5365 71.6432 53.276 71.2109 53.0938 70.7109C52.9115 70.2109 52.8203 69.6641 52.8203 69.0703V68.7422C52.8203 68.0547 52.9219 67.4427 53.125 66.9062C53.3281 66.3646 53.6042 65.9062 53.9531 65.5312C54.3021 65.1562 54.6979 64.8724 55.1406 64.6797C55.5833 64.487 56.0417 64.3906 56.5156 64.3906C57.1198 64.3906 57.6406 64.4948 58.0781 64.7031C58.5208 64.9115 58.8828 65.2031 59.1641 65.5781C59.4453 65.9479 59.6536 66.3854 59.7891 66.8906C59.9245 67.3906 59.9922 67.9375 59.9922 68.5312V69.1797H53.6797V68H58.5469V67.8906C58.526 67.5156 58.4479 67.151 58.3125 66.7969C58.1823 66.4427 57.974 66.151 57.6875 65.9219C57.401 65.6927 57.0104 65.5781 56.5156 65.5781C56.1875 65.5781 55.8854 65.6484 55.6094 65.7891C55.3333 65.9245 55.0964 66.1276 54.8984 66.3984C54.7005 66.6693 54.5469 67 54.4375 67.3906C54.3281 67.7812 54.2734 68.2318 54.2734 68.7422V69.0703C54.2734 69.4714 54.3281 69.849 54.4375 70.2031C54.5521 70.5521 54.7161 70.8594 54.9297 71.125C55.1484 71.3906 55.4115 71.599 55.7188 71.75C56.0312 71.901 56.3854 71.9766 56.7812 71.9766C57.2917 71.9766 57.724 71.8724 58.0781 71.6641C58.4323 71.4557 58.7422 71.1771 59.0078 70.8281L59.8828 71.5234C59.7005 71.7995 59.4688 72.0625 59.1875 72.3125C58.9062 72.5625 58.5599 72.7656 58.1484 72.9219C57.7422 73.0781 57.2604 73.1562 56.7031 73.1562ZM64.8359 68.9609H63.2812V68.0703H64.7188C65.1198 68.0703 65.4375 68.0208 65.6719 67.9219C65.9062 67.8177 66.0729 67.6745 66.1719 67.4922C66.2708 67.3099 66.3203 67.0964 66.3203 66.8516C66.3203 66.6328 66.263 66.4271 66.1484 66.2344C66.0391 66.0365 65.862 65.8776 65.6172 65.7578C65.3724 65.6328 65.0443 65.5703 64.6328 65.5703C64.2995 65.5703 63.9974 65.6302 63.7266 65.75C63.4557 65.8646 63.2396 66.0234 63.0781 66.2266C62.9219 66.4245 62.8438 66.6484 62.8438 66.8984H61.3984C61.3984 66.3828 61.5443 65.9401 61.8359 65.5703C62.1328 65.1953 62.526 64.9062 63.0156 64.7031C63.5104 64.5 64.0495 64.3984 64.6328 64.3984C65.1224 64.3984 65.5599 64.4531 65.9453 64.5625C66.3359 64.6667 66.6667 64.8229 66.9375 65.0312C67.2083 65.2344 67.4141 65.4896 67.5547 65.7969C67.7005 66.099 67.7734 66.4505 67.7734 66.8516C67.7734 67.138 67.7057 67.4089 67.5703 67.6641C67.4349 67.9193 67.2396 68.1458 66.9844 68.3438C66.7292 68.5365 66.4193 68.6875 66.0547 68.7969C65.6953 68.9062 65.2891 68.9609 64.8359 68.9609ZM63.2812 68.4141H64.8359C65.3411 68.4141 65.7865 68.4635 66.1719 68.5625C66.5573 68.6562 66.8802 68.7969 67.1406 68.9844C67.401 69.1719 67.5964 69.4036 67.7266 69.6797C67.862 69.9505 67.9297 70.263 67.9297 70.6172C67.9297 71.013 67.849 71.3698 67.6875 71.6875C67.5312 72 67.3073 72.2656 67.0156 72.4844C66.724 72.7031 66.375 72.8698 65.9688 72.9844C65.5677 73.099 65.1224 73.1562 64.6328 73.1562C64.0859 73.1562 63.5547 73.0625 63.0391 72.875C62.5234 72.6875 62.099 72.3984 61.7656 72.0078C61.4323 71.612 61.2656 71.1094 61.2656 70.5H62.7109C62.7109 70.7552 62.7917 70.9974 62.9531 71.2266C63.1146 71.4557 63.3385 71.6406 63.625 71.7812C63.9167 71.9219 64.2526 71.9922 64.6328 71.9922C65.0391 71.9922 65.3776 71.9297 65.6484 71.8047C65.9193 71.6797 66.1224 71.513 66.2578 71.3047C66.3984 71.0964 66.4688 70.8698 66.4688 70.625C66.4688 70.3073 66.4062 70.0521 66.2812 69.8594C66.1562 69.6667 65.9635 69.526 65.7031 69.4375C65.4479 69.3438 65.1198 69.2969 64.7188 69.2969H63.2812V68.4141ZM77.7422 69.2812H74.9688L74.9531 68.125H77.2188C77.6667 68.125 78.0391 68.0807 78.3359 67.9922C78.638 67.9036 78.8646 67.7708 79.0156 67.5938C79.1667 67.4167 79.2422 67.1979 79.2422 66.9375C79.2422 66.7344 79.1979 66.5573 79.1094 66.4062C79.026 66.25 78.8984 66.1224 78.7266 66.0234C78.5547 65.9193 78.3411 65.8438 78.0859 65.7969C77.8359 65.7448 77.5417 65.7188 77.2031 65.7188H75.3516V73H73.9062V64.5469H77.2031C77.7396 64.5469 78.2214 64.5938 78.6484 64.6875C79.0807 64.7812 79.4479 64.9245 79.75 65.1172C80.0573 65.3047 80.2917 65.5443 80.4531 65.8359C80.6146 66.1276 80.6953 66.4714 80.6953 66.8672C80.6953 67.1224 80.6432 67.3646 80.5391 67.5938C80.4349 67.8229 80.2812 68.026 80.0781 68.2031C79.875 68.3802 79.625 68.526 79.3281 68.6406C79.0312 68.75 78.6901 68.8203 78.3047 68.8516L77.7422 69.2812ZM77.7422 73H74.4453L75.1641 71.8281H77.7422C78.1432 71.8281 78.4766 71.7786 78.7422 71.6797C79.0078 71.5755 79.2057 71.4297 79.3359 71.2422C79.4714 71.0495 79.5391 70.8203 79.5391 70.5547C79.5391 70.2891 79.4714 70.0625 79.3359 69.875C79.2057 69.6823 79.0078 69.5365 78.7422 69.4375C78.4766 69.3333 78.1432 69.2812 77.7422 69.2812H75.5469L75.5625 68.125H78.3047L78.8281 68.5625C79.2917 68.599 79.6849 68.7135 80.0078 68.9062C80.3307 69.099 80.5755 69.3438 80.7422 69.6406C80.9089 69.9323 80.9922 70.25 80.9922 70.5938C80.9922 70.9896 80.9167 71.3385 80.7656 71.6406C80.6198 71.9427 80.4062 72.1953 80.125 72.3984C79.8438 72.5964 79.5026 72.7474 79.1016 72.8516C78.7005 72.9505 78.2474 73 77.7422 73ZM84.1172 67.4531H86.6562C87.3385 67.4531 87.9141 67.5729 88.3828 67.8125C88.8516 68.0469 89.2057 68.3724 89.4453 68.7891C89.6901 69.2005 89.8125 69.6693 89.8125 70.1953C89.8125 70.5859 89.7448 70.9531 89.6094 71.2969C89.474 71.6354 89.2708 71.9323 89 72.1875C88.7344 72.4427 88.4036 72.6432 88.0078 72.7891C87.6172 72.9297 87.1667 73 86.6562 73H83.0625V64.5469H84.5078V71.8125H86.6562C87.0729 71.8125 87.4062 71.737 87.6562 71.5859C87.9062 71.4349 88.0859 71.2396 88.1953 71C88.3047 70.7604 88.3594 70.5104 88.3594 70.25C88.3594 69.9948 88.3047 69.7448 88.1953 69.5C88.0859 69.2552 87.9062 69.0521 87.6562 68.8906C87.4062 68.724 87.0729 68.6406 86.6562 68.6406H84.1172V67.4531ZM92.8203 64.5469V73H91.375V64.5469H92.8203ZM96.3281 64.5469L98.1797 67.625L100.055 64.5469H101.75L98.9844 68.7188L101.836 73H100.164L98.2109 69.8281L96.2578 73H94.5781L97.4219 68.7188L94.6641 64.5469H96.3281ZM102.75 68.8672V68.6875C102.75 68.0781 102.839 67.513 103.016 66.9922C103.193 66.4661 103.448 66.0104 103.781 65.625C104.115 65.2344 104.518 64.9323 104.992 64.7188C105.466 64.5 105.997 64.3906 106.586 64.3906C107.18 64.3906 107.714 64.5 108.188 64.7188C108.667 64.9323 109.073 65.2344 109.406 65.625C109.745 66.0104 110.003 66.4661 110.18 66.9922C110.357 67.513 110.445 68.0781 110.445 68.6875V68.8672C110.445 69.4766 110.357 70.0417 110.18 70.5625C110.003 71.0833 109.745 71.5391 109.406 71.9297C109.073 72.3151 108.669 72.6172 108.195 72.8359C107.727 73.0495 107.195 73.1562 106.602 73.1562C106.008 73.1562 105.474 73.0495 105 72.8359C104.526 72.6172 104.12 72.3151 103.781 71.9297C103.448 71.5391 103.193 71.0833 103.016 70.5625C102.839 70.0417 102.75 69.4766 102.75 68.8672ZM104.195 68.6875V68.8672C104.195 69.2891 104.245 69.6875 104.344 70.0625C104.443 70.4323 104.591 70.7604 104.789 71.0469C104.992 71.3333 105.245 71.5599 105.547 71.7266C105.849 71.888 106.201 71.9688 106.602 71.9688C106.997 71.9688 107.344 71.888 107.641 71.7266C107.943 71.5599 108.193 71.3333 108.391 71.0469C108.589 70.7604 108.737 70.4323 108.836 70.0625C108.94 69.6875 108.992 69.2891 108.992 68.8672V68.6875C108.992 68.2708 108.94 67.8776 108.836 67.5078C108.737 67.1328 108.586 66.8021 108.383 66.5156C108.185 66.224 107.935 65.9948 107.633 65.8281C107.336 65.6615 106.987 65.5781 106.586 65.5781C106.19 65.5781 105.841 65.6615 105.539 65.8281C105.242 65.9948 104.992 66.224 104.789 66.5156C104.591 66.8021 104.443 67.1328 104.344 67.5078C104.245 67.8776 104.195 68.2708 104.195 68.6875ZM113.219 64.5469H114.664L114.539 67.7109C114.508 68.513 114.417 69.2057 114.266 69.7891C114.115 70.3724 113.922 70.8698 113.688 71.2812C113.453 71.6875 113.19 72.0286 112.898 72.3047C112.612 72.5807 112.315 72.8125 112.008 73H111.289L111.328 71.8203L111.625 71.8125C111.797 71.6094 111.964 71.401 112.125 71.1875C112.286 70.9688 112.435 70.7109 112.57 70.4141C112.706 70.112 112.818 69.7448 112.906 69.3125C113 68.875 113.06 68.3411 113.086 67.7109L113.219 64.5469ZM113.578 64.5469H118.664V73H117.219V65.8828H113.578V64.5469ZM110.961 71.8125H119.75V75.4922H118.305V73H112.406V75.4922H110.953L110.961 71.8125ZM127.086 68.2109V69.3828H122.617V68.2109H127.086ZM122.922 64.5469V73H121.477V64.5469H122.922ZM128.258 64.5469V73H126.805V64.5469H128.258ZM131.773 67.4531H134.312C134.995 67.4531 135.57 67.5729 136.039 67.8125C136.508 68.0469 136.862 68.3724 137.102 68.7891C137.346 69.2005 137.469 69.6693 137.469 70.1953C137.469 70.5859 137.401 70.9531 137.266 71.2969C137.13 71.6354 136.927 71.9323 136.656 72.1875C136.391 72.4427 136.06 72.6432 135.664 72.7891C135.273 72.9297 134.823 73 134.312 73H130.719V64.5469H132.164V71.8125H134.312C134.729 71.8125 135.062 71.737 135.312 71.5859C135.562 71.4349 135.742 71.2396 135.852 71C135.961 70.7604 136.016 70.5104 136.016 70.25C136.016 69.9948 135.961 69.7448 135.852 69.5C135.742 69.2552 135.562 69.0521 135.312 68.8906C135.062 68.724 134.729 68.6406 134.312 68.6406H131.773V67.4531ZM140.477 64.5469V73H139.031V64.5469H140.477ZM143.984 64.5469L145.836 67.625L147.711 64.5469H149.406L146.641 68.7188L149.492 73H147.82L145.867 69.8281L143.914 73H142.234L145.078 68.7188L142.32 64.5469H143.984ZM156.195 71.7891H156.344C157.177 71.7891 157.854 71.6719 158.375 71.4375C158.896 71.2031 159.297 70.888 159.578 70.4922C159.859 70.0964 160.052 69.651 160.156 69.1562C160.26 68.6562 160.312 68.1432 160.312 67.6172V65.875C160.312 65.3594 160.253 64.901 160.133 64.5C160.018 64.099 159.857 63.763 159.648 63.4922C159.445 63.2214 159.214 63.0156 158.953 62.875C158.693 62.7344 158.417 62.6641 158.125 62.6641C157.792 62.6641 157.492 62.7318 157.227 62.8672C156.966 62.9974 156.745 63.1823 156.562 63.4219C156.385 63.6615 156.25 63.9427 156.156 64.2656C156.062 64.5885 156.016 64.9401 156.016 65.3203C156.016 65.6589 156.057 65.987 156.141 66.3047C156.224 66.6224 156.352 66.9089 156.523 67.1641C156.695 67.4193 156.909 67.6224 157.164 67.7734C157.424 67.9193 157.729 67.9922 158.078 67.9922C158.401 67.9922 158.703 67.9297 158.984 67.8047C159.271 67.6745 159.523 67.5 159.742 67.2812C159.966 67.0573 160.143 66.8047 160.273 66.5234C160.409 66.2422 160.487 65.9479 160.508 65.6406H161.195C161.195 66.0729 161.109 66.5 160.938 66.9219C160.771 67.3385 160.536 67.7188 160.234 68.0625C159.932 68.4062 159.578 68.6823 159.172 68.8906C158.766 69.0938 158.323 69.1953 157.844 69.1953C157.281 69.1953 156.794 69.0859 156.383 68.8672C155.971 68.6484 155.633 68.3568 155.367 67.9922C155.107 67.6276 154.911 67.2214 154.781 66.7734C154.656 66.3203 154.594 65.862 154.594 65.3984C154.594 64.8568 154.669 64.349 154.82 63.875C154.971 63.401 155.195 62.9844 155.492 62.625C155.789 62.2604 156.156 61.9766 156.594 61.7734C157.036 61.5703 157.547 61.4688 158.125 61.4688C158.776 61.4688 159.331 61.599 159.789 61.8594C160.247 62.1198 160.62 62.4688 160.906 62.9062C161.198 63.3438 161.411 63.8359 161.547 64.3828C161.682 64.9297 161.75 65.4922 161.75 66.0703V66.5938C161.75 67.1823 161.711 67.7812 161.633 68.3906C161.56 68.9948 161.417 69.5729 161.203 70.125C160.995 70.6771 160.69 71.1719 160.289 71.6094C159.888 72.0417 159.365 72.3854 158.719 72.6406C158.078 72.8906 157.286 73.0156 156.344 73.0156H156.195V71.7891ZM163.852 72.2344C163.852 71.9896 163.927 71.7839 164.078 71.6172C164.234 71.4453 164.458 71.3594 164.75 71.3594C165.042 71.3594 165.263 71.4453 165.414 71.6172C165.57 71.7839 165.648 71.9896 165.648 72.2344C165.648 72.474 165.57 72.6771 165.414 72.8438C165.263 73.0104 165.042 73.0938 164.75 73.0938C164.458 73.0938 164.234 73.0104 164.078 72.8438C163.927 72.6771 163.852 72.474 163.852 72.2344ZM163.859 65.3359C163.859 65.0911 163.935 64.8854 164.086 64.7188C164.242 64.5469 164.466 64.4609 164.758 64.4609C165.049 64.4609 165.271 64.5469 165.422 64.7188C165.578 64.8854 165.656 65.0911 165.656 65.3359C165.656 65.5755 165.578 65.7786 165.422 65.9453C165.271 66.112 165.049 66.1953 164.758 66.1953C164.466 66.1953 164.242 66.112 164.086 65.9453C163.935 65.7786 163.859 65.5755 163.859 65.3359ZM174.773 66.4062V68.1406C174.773 69.0729 174.69 69.8594 174.523 70.5C174.357 71.1406 174.117 71.6562 173.805 72.0469C173.492 72.4375 173.115 72.7214 172.672 72.8984C172.234 73.0703 171.74 73.1562 171.188 73.1562C170.75 73.1562 170.346 73.1016 169.977 72.9922C169.607 72.8828 169.273 72.7083 168.977 72.4688C168.685 72.224 168.435 71.9062 168.227 71.5156C168.018 71.125 167.859 70.651 167.75 70.0938C167.641 69.5365 167.586 68.8854 167.586 68.1406V66.4062C167.586 65.474 167.669 64.6927 167.836 64.0625C168.008 63.4323 168.25 62.9271 168.562 62.5469C168.875 62.1615 169.25 61.8854 169.688 61.7188C170.13 61.5521 170.625 61.4688 171.172 61.4688C171.615 61.4688 172.021 61.5234 172.391 61.6328C172.766 61.737 173.099 61.9062 173.391 62.1406C173.682 62.3698 173.93 62.6771 174.133 63.0625C174.341 63.4427 174.5 63.9089 174.609 64.4609C174.719 65.013 174.773 65.6615 174.773 66.4062ZM173.32 68.375V66.1641C173.32 65.6536 173.289 65.2057 173.227 64.8203C173.169 64.4297 173.083 64.0964 172.969 63.8203C172.854 63.5443 172.708 63.3203 172.531 63.1484C172.359 62.9766 172.159 62.8516 171.93 62.7734C171.706 62.6901 171.453 62.6484 171.172 62.6484C170.828 62.6484 170.523 62.7135 170.258 62.8438C169.992 62.9688 169.768 63.1693 169.586 63.4453C169.409 63.7214 169.273 64.0833 169.18 64.5312C169.086 64.9792 169.039 65.5234 169.039 66.1641V68.375C169.039 68.8854 169.068 69.3359 169.125 69.7266C169.188 70.1172 169.279 70.4557 169.398 70.7422C169.518 71.0234 169.664 71.2552 169.836 71.4375C170.008 71.6198 170.206 71.7552 170.43 71.8438C170.659 71.9271 170.911 71.9688 171.188 71.9688C171.542 71.9688 171.852 71.901 172.117 71.7656C172.383 71.6302 172.604 71.4193 172.781 71.1328C172.964 70.8411 173.099 70.4688 173.188 70.0156C173.276 69.5573 173.32 69.0104 173.32 68.375ZM183.773 66.4062V68.1406C183.773 69.0729 183.69 69.8594 183.523 70.5C183.357 71.1406 183.117 71.6562 182.805 72.0469C182.492 72.4375 182.115 72.7214 181.672 72.8984C181.234 73.0703 180.74 73.1562 180.188 73.1562C179.75 73.1562 179.346 73.1016 178.977 72.9922C178.607 72.8828 178.273 72.7083 177.977 72.4688C177.685 72.224 177.435 71.9062 177.227 71.5156C177.018 71.125 176.859 70.651 176.75 70.0938C176.641 69.5365 176.586 68.8854 176.586 68.1406V66.4062C176.586 65.474 176.669 64.6927 176.836 64.0625C177.008 63.4323 177.25 62.9271 177.562 62.5469C177.875 62.1615 178.25 61.8854 178.688 61.7188C179.13 61.5521 179.625 61.4688 180.172 61.4688C180.615 61.4688 181.021 61.5234 181.391 61.6328C181.766 61.737 182.099 61.9062 182.391 62.1406C182.682 62.3698 182.93 62.6771 183.133 63.0625C183.341 63.4427 183.5 63.9089 183.609 64.4609C183.719 65.013 183.773 65.6615 183.773 66.4062ZM182.32 68.375V66.1641C182.32 65.6536 182.289 65.2057 182.227 64.8203C182.169 64.4297 182.083 64.0964 181.969 63.8203C181.854 63.5443 181.708 63.3203 181.531 63.1484C181.359 62.9766 181.159 62.8516 180.93 62.7734C180.706 62.6901 180.453 62.6484 180.172 62.6484C179.828 62.6484 179.523 62.7135 179.258 62.8438C178.992 62.9688 178.768 63.1693 178.586 63.4453C178.409 63.7214 178.273 64.0833 178.18 64.5312C178.086 64.9792 178.039 65.5234 178.039 66.1641V68.375C178.039 68.8854 178.068 69.3359 178.125 69.7266C178.188 70.1172 178.279 70.4557 178.398 70.7422C178.518 71.0234 178.664 71.2552 178.836 71.4375C179.008 71.6198 179.206 71.7552 179.43 71.8438C179.659 71.9271 179.911 71.9688 180.188 71.9688C180.542 71.9688 180.852 71.901 181.117 71.7656C181.383 71.6302 181.604 71.4193 181.781 71.1328C181.964 70.8411 182.099 70.4688 182.188 70.0156C182.276 69.5573 182.32 69.0104 182.32 68.375ZM188.797 67.5703V68.7578H184.984V67.5703H188.797ZM197.508 71.8125V73H190.062V71.9609L193.789 67.8125C194.247 67.3021 194.602 66.8698 194.852 66.5156C195.107 66.1562 195.284 65.8359 195.383 65.5547C195.487 65.2682 195.539 64.9766 195.539 64.6797C195.539 64.3047 195.461 63.9661 195.305 63.6641C195.154 63.3568 194.93 63.112 194.633 62.9297C194.336 62.7474 193.977 62.6562 193.555 62.6562C193.049 62.6562 192.628 62.7552 192.289 62.9531C191.956 63.1458 191.706 63.4167 191.539 63.7656C191.372 64.1146 191.289 64.5156 191.289 64.9688H189.844C189.844 64.3281 189.984 63.7422 190.266 63.2109C190.547 62.6797 190.964 62.2578 191.516 61.9453C192.068 61.6276 192.747 61.4688 193.555 61.4688C194.273 61.4688 194.888 61.5964 195.398 61.8516C195.909 62.1016 196.299 62.4557 196.57 62.9141C196.846 63.3672 196.984 63.8984 196.984 64.5078C196.984 64.8411 196.927 65.1797 196.812 65.5234C196.703 65.862 196.549 66.2005 196.352 66.5391C196.159 66.8776 195.932 67.2109 195.672 67.5391C195.417 67.8672 195.143 68.1901 194.852 68.5078L191.805 71.8125H197.508ZM203.805 61.5625V73H202.359V63.3672L199.445 64.4297V63.125L203.578 61.5625H203.805ZM208.148 72.2344C208.148 71.9896 208.224 71.7839 208.375 71.6172C208.531 71.4453 208.755 71.3594 209.047 71.3594C209.339 71.3594 209.56 71.4453 209.711 71.6172C209.867 71.7839 209.945 71.9896 209.945 72.2344C209.945 72.474 209.867 72.6771 209.711 72.8438C209.56 73.0104 209.339 73.0938 209.047 73.0938C208.755 73.0938 208.531 73.0104 208.375 72.8438C208.224 72.6771 208.148 72.474 208.148 72.2344ZM208.156 65.3359C208.156 65.0911 208.232 64.8854 208.383 64.7188C208.539 64.5469 208.763 64.4609 209.055 64.4609C209.346 64.4609 209.568 64.5469 209.719 64.7188C209.875 64.8854 209.953 65.0911 209.953 65.3359C209.953 65.5755 209.875 65.7786 209.719 65.9453C209.568 66.112 209.346 66.1953 209.055 66.1953C208.763 66.1953 208.539 66.112 208.383 65.9453C208.232 65.7786 208.156 65.5755 208.156 65.3359ZM219.07 66.4062V68.1406C219.07 69.0729 218.987 69.8594 218.82 70.5C218.654 71.1406 218.414 71.6562 218.102 72.0469C217.789 72.4375 217.411 72.7214 216.969 72.8984C216.531 73.0703 216.036 73.1562 215.484 73.1562C215.047 73.1562 214.643 73.1016 214.273 72.9922C213.904 72.8828 213.57 72.7083 213.273 72.4688C212.982 72.224 212.732 71.9062 212.523 71.5156C212.315 71.125 212.156 70.651 212.047 70.0938C211.938 69.5365 211.883 68.8854 211.883 68.1406V66.4062C211.883 65.474 211.966 64.6927 212.133 64.0625C212.305 63.4323 212.547 62.9271 212.859 62.5469C213.172 62.1615 213.547 61.8854 213.984 61.7188C214.427 61.5521 214.922 61.4688 215.469 61.4688C215.911 61.4688 216.318 61.5234 216.688 61.6328C217.062 61.737 217.396 61.9062 217.688 62.1406C217.979 62.3698 218.227 62.6771 218.43 63.0625C218.638 63.4427 218.797 63.9089 218.906 64.4609C219.016 65.013 219.07 65.6615 219.07 66.4062ZM217.617 68.375V66.1641C217.617 65.6536 217.586 65.2057 217.523 64.8203C217.466 64.4297 217.38 64.0964 217.266 63.8203C217.151 63.5443 217.005 63.3203 216.828 63.1484C216.656 62.9766 216.456 62.8516 216.227 62.7734C216.003 62.6901 215.75 62.6484 215.469 62.6484C215.125 62.6484 214.82 62.7135 214.555 62.8438C214.289 62.9688 214.065 63.1693 213.883 63.4453C213.706 63.7214 213.57 64.0833 213.477 64.5312C213.383 64.9792 213.336 65.5234 213.336 66.1641V68.375C213.336 68.8854 213.365 69.3359 213.422 69.7266C213.484 70.1172 213.576 70.4557 213.695 70.7422C213.815 71.0234 213.961 71.2552 214.133 71.4375C214.305 71.6198 214.503 71.7552 214.727 71.8438C214.956 71.9271 215.208 71.9688 215.484 71.9688C215.839 71.9688 216.148 71.901 216.414 71.7656C216.68 71.6302 216.901 71.4193 217.078 71.1328C217.26 70.8411 217.396 70.4688 217.484 70.0156C217.573 69.5573 217.617 69.0104 217.617 68.375ZM228.07 66.4062V68.1406C228.07 69.0729 227.987 69.8594 227.82 70.5C227.654 71.1406 227.414 71.6562 227.102 72.0469C226.789 72.4375 226.411 72.7214 225.969 72.8984C225.531 73.0703 225.036 73.1562 224.484 73.1562C224.047 73.1562 223.643 73.1016 223.273 72.9922C222.904 72.8828 222.57 72.7083 222.273 72.4688C221.982 72.224 221.732 71.9062 221.523 71.5156C221.315 71.125 221.156 70.651 221.047 70.0938C220.938 69.5365 220.883 68.8854 220.883 68.1406V66.4062C220.883 65.474 220.966 64.6927 221.133 64.0625C221.305 63.4323 221.547 62.9271 221.859 62.5469C222.172 62.1615 222.547 61.8854 222.984 61.7188C223.427 61.5521 223.922 61.4688 224.469 61.4688C224.911 61.4688 225.318 61.5234 225.688 61.6328C226.062 61.737 226.396 61.9062 226.688 62.1406C226.979 62.3698 227.227 62.6771 227.43 63.0625C227.638 63.4427 227.797 63.9089 227.906 64.4609C228.016 65.013 228.07 65.6615 228.07 66.4062ZM226.617 68.375V66.1641C226.617 65.6536 226.586 65.2057 226.523 64.8203C226.466 64.4297 226.38 64.0964 226.266 63.8203C226.151 63.5443 226.005 63.3203 225.828 63.1484C225.656 62.9766 225.456 62.8516 225.227 62.7734C225.003 62.6901 224.75 62.6484 224.469 62.6484C224.125 62.6484 223.82 62.7135 223.555 62.8438C223.289 62.9688 223.065 63.1693 222.883 63.4453C222.706 63.7214 222.57 64.0833 222.477 64.5312C222.383 64.9792 222.336 65.5234 222.336 66.1641V68.375C222.336 68.8854 222.365 69.3359 222.422 69.7266C222.484 70.1172 222.576 70.4557 222.695 70.7422C222.815 71.0234 222.961 71.2552 223.133 71.4375C223.305 71.6198 223.503 71.7552 223.727 71.8438C223.956 71.9271 224.208 71.9688 224.484 71.9688C224.839 71.9688 225.148 71.901 225.414 71.7656C225.68 71.6302 225.901 71.4193 226.078 71.1328C226.26 70.8411 226.396 70.4688 226.484 70.0156C226.573 69.5573 226.617 69.0104 226.617 68.375Z" fill="white"/>
</svg>
