<svg width="30" height="34" viewBox="0 0 30 34" fill="none" xmlns="http://www.w3.org/2000/svg">
<g clip-path="url(#clip0_15_67)">
<path d="M26.05 3.17733C25.4116 2.48705 24.6535 1.93947 23.8192 1.56588C22.9849 1.19229 22.0906 1 21.1875 1C20.2844 1 19.3902 1.19229 18.5558 1.56588C17.7215 1.93947 16.9635 2.48705 16.325 3.17733L15 4.60922L13.675 3.17733C12.3854 1.78367 10.6363 1.00072 8.81253 1.00072C6.98874 1.00072 5.23964 1.78367 3.95003 3.17733C2.66041 4.57098 1.93591 6.46119 1.93591 8.43212C1.93591 10.403 2.66041 12.2932 3.95003 13.6869L5.27503 15.1188L15 25.6284L24.725 15.1188L26.05 13.6869C26.6888 12.997 27.1955 12.1778 27.5412 11.2761C27.8869 10.3745 28.0648 9.40808 28.0648 8.43212C28.0648 7.45615 27.8869 6.48974 27.5412 5.58811C27.1955 4.68647 26.6888 3.86728 26.05 3.17733Z" stroke="#929292" stroke-width="2" stroke-linecap="round" stroke-linejoin="round"/>
</g>
<defs>
<clipPath id="clip0_15_67">
<rect width="30" height="32.4203" fill="white" transform="translate(0 0.583496)"/>
</clipPath>
</defs>
</svg>
