<svg width="30" height="31" viewBox="0 0 30 31" fill="none" xmlns="http://www.w3.org/2000/svg">
<g opacity="0.3">
<path d="M27.5 21.4682V25.2182C27.5014 25.5664 27.4301 25.9109 27.2906 26.2299C27.1511 26.5489 26.9466 26.8352 26.6901 27.0706C26.4335 27.3059 26.1307 27.4851 25.8009 27.5966C25.4711 27.7081 25.1217 27.7496 24.775 27.7182C20.9285 27.3003 17.2337 25.9859 13.9875 23.8807C10.9673 21.9616 8.40665 19.401 6.48748 16.3807C4.37495 13.1197 3.06028 9.40698 2.64998 5.54324C2.61874 5.19757 2.65982 4.84919 2.7706 4.52027C2.88138 4.19135 3.05944 3.8891 3.29343 3.63276C3.52743 3.37643 3.81223 3.17162 4.12972 3.03139C4.4472 2.89115 4.7904 2.81856 5.13748 2.81824H8.88748C9.49411 2.81227 10.0822 3.02708 10.5422 3.42265C11.0021 3.81822 11.3026 4.36754 11.3875 4.96824C11.5458 6.16832 11.8393 7.34664 12.2625 8.48074C12.4307 8.92814 12.4671 9.41438 12.3674 9.88184C12.2677 10.3493 12.0361 10.7784 11.7 11.1182L10.1125 12.7057C11.8919 15.8352 14.483 18.4263 17.6125 20.2057L19.2 18.6182C19.5398 18.2822 19.9689 18.0505 20.4364 17.9509C20.9038 17.8512 21.3901 17.8876 21.8375 18.0557C22.9716 18.4789 24.1499 18.7725 25.35 18.9307C25.9572 19.0164 26.5117 19.3222 26.9081 19.7901C27.3046 20.258 27.5152 20.8552 27.5 21.4682Z" stroke="#929292" stroke-width="2" stroke-linecap="round" stroke-linejoin="round"/>
</g>
</svg>
