<svg width="30" height="31" viewBox="0 0 30 31" fill="none" xmlns="http://www.w3.org/2000/svg">
<g opacity="0.5">
<path d="M27.5 21.6501V25.4001C27.5014 25.7482 27.4301 26.0928 27.2907 26.4118C27.1512 26.7308 26.9467 27.0171 26.6901 27.2525C26.4336 27.4878 26.1308 27.667 25.801 27.7785C25.4712 27.89 25.1218 27.9315 24.775 27.9001C20.9286 27.4822 17.2338 26.1678 13.9875 24.0626C10.9673 22.1435 8.40671 19.5828 6.48754 16.5626C4.37501 13.3016 3.06034 9.58886 2.65004 5.72512C2.6188 5.37945 2.65988 5.03107 2.77066 4.70215C2.88145 4.37323 3.0595 4.07098 3.2935 3.81465C3.52749 3.55831 3.81229 3.35351 4.12978 3.21327C4.44726 3.07304 4.79046 3.00045 5.13754 3.00012H8.88754C9.49417 2.99415 10.0823 3.20897 10.5422 3.60454C11.0022 4.0001 11.3026 4.54943 11.3875 5.15012C11.5458 6.3502 11.8394 7.52853 12.2625 8.66262C12.4307 9.11003 12.4671 9.59626 12.3674 10.0637C12.2677 10.5312 12.0361 10.9603 11.7 11.3001L10.1125 12.8876C11.892 16.0171 14.4831 18.6082 17.6125 20.3876L19.2 18.8001C19.5399 18.464 19.969 18.2324 20.4364 18.1327C20.9039 18.033 21.3901 18.0694 21.8375 18.2376C22.9716 18.6608 24.15 18.9543 25.35 19.1126C25.9572 19.1983 26.5118 19.5041 26.9082 19.972C27.3046 20.4398 27.5152 21.0371 27.5 21.6501Z" stroke="white" stroke-width="2" stroke-linecap="round" stroke-linejoin="round"/>
</g>
</svg>
