<svg width="187" height="77" viewBox="0 0 187 77" fill="none" xmlns="http://www.w3.org/2000/svg">
<path d="M10.1465 14.1523C10.1465 15.0182 9.94466 15.7539 9.54102 16.3594C9.14388 16.9583 8.60352 17.4141 7.91992 17.7266C7.24284 18.0391 6.47786 18.1953 5.625 18.1953C4.77214 18.1953 4.00391 18.0391 3.32031 17.7266C2.63672 17.4141 2.09635 16.9583 1.69922 16.3594C1.30208 15.7539 1.10352 15.0182 1.10352 14.1523C1.10352 13.5859 1.21094 13.0684 1.42578 12.5996C1.64714 12.1243 1.95638 11.7109 2.35352 11.3594C2.75716 11.0078 3.23242 10.7376 3.7793 10.5488C4.33268 10.3535 4.94141 10.2559 5.60547 10.2559C6.47786 10.2559 7.25586 10.4251 7.93945 10.7637C8.62305 11.0957 9.16016 11.5547 9.55078 12.1406C9.94792 12.7266 10.1465 13.3971 10.1465 14.1523ZM8.33008 14.1133C8.33008 13.5859 8.21615 13.1204 7.98828 12.7168C7.76042 12.3066 7.44141 11.9876 7.03125 11.7598C6.62109 11.5319 6.14583 11.418 5.60547 11.418C5.05208 11.418 4.57357 11.5319 4.16992 11.7598C3.77279 11.9876 3.46354 12.3066 3.24219 12.7168C3.02083 13.1204 2.91016 13.5859 2.91016 14.1133C2.91016 14.6602 3.01758 15.1289 3.23242 15.5195C3.45378 15.9036 3.76628 16.1999 4.16992 16.4082C4.58008 16.61 5.0651 16.7109 5.625 16.7109C6.1849 16.7109 6.66667 16.61 7.07031 16.4082C7.47396 16.1999 7.7832 15.9036 7.99805 15.5195C8.2194 15.1289 8.33008 14.6602 8.33008 14.1133ZM9.81445 7.48242C9.81445 8.17253 9.63216 8.79427 9.26758 9.34766C8.90299 9.90104 8.40495 10.3372 7.77344 10.6562C7.14193 10.9753 6.42578 11.1348 5.625 11.1348C4.8112 11.1348 4.08529 10.9753 3.44727 10.6562C2.81576 10.3372 2.32096 9.90104 1.96289 9.34766C1.60482 8.79427 1.42578 8.17253 1.42578 7.48242C1.42578 6.6556 1.60482 5.95247 1.96289 5.37305C2.32747 4.79362 2.82552 4.35091 3.45703 4.04492C4.08854 3.73893 4.80794 3.58594 5.61523 3.58594C6.42904 3.58594 7.15169 3.73893 7.7832 4.04492C8.41471 4.35091 8.90951 4.79362 9.26758 5.37305C9.63216 5.95247 9.81445 6.6556 9.81445 7.48242ZM8.00781 7.51172C8.00781 7.03646 7.9069 6.61654 7.70508 6.25195C7.50326 5.88737 7.22331 5.60091 6.86523 5.39258C6.50716 5.17773 6.09049 5.07031 5.61523 5.07031C5.13997 5.07031 4.72331 5.17122 4.36523 5.37305C4.01367 5.56836 3.73698 5.84831 3.53516 6.21289C3.33984 6.57747 3.24219 7.01042 3.24219 7.51172C3.24219 8 3.33984 8.42643 3.53516 8.79102C3.73698 9.1556 4.01693 9.4388 4.375 9.64062C4.73307 9.84245 5.14974 9.94336 5.625 9.94336C6.10026 9.94336 6.51367 9.84245 6.86523 9.64062C7.22331 9.4388 7.50326 9.1556 7.70508 8.79102C7.9069 8.42643 8.00781 8 8.00781 7.51172ZM17.5195 12.3164V12.2188C17.5195 10.7995 17.679 9.51693 17.998 8.37109C18.3171 7.21875 18.724 6.20964 19.2188 5.34375C19.7135 4.47786 20.2344 3.76172 20.7812 3.19531C21.3281 2.6224 21.8327 2.20898 22.2949 1.95508L22.6758 3.14648C22.2917 3.43945 21.901 3.8431 21.5039 4.35742C21.1133 4.87174 20.752 5.50326 20.4199 6.25195C20.0944 7.00065 19.8307 7.86979 19.6289 8.85938C19.4271 9.84896 19.3262 10.9622 19.3262 12.1992V12.3359C19.3262 13.5729 19.4271 14.6895 19.6289 15.6855C19.8307 16.6751 20.0944 17.5475 20.4199 18.3027C20.752 19.0579 21.1133 19.6992 21.5039 20.2266C21.901 20.7604 22.2917 21.1836 22.6758 21.4961L22.2949 22.5898C21.8327 22.3359 21.3281 21.9225 20.7812 21.3496C20.2344 20.7832 19.7135 20.0671 19.2188 19.2012C18.724 18.3418 18.3171 17.3359 17.998 16.1836C17.679 15.0312 17.5195 13.7422 17.5195 12.3164ZM33.8574 13.2148V14.6992H23.584V13.6348L29.9512 3.78125H31.4258L29.8438 6.63281L25.6348 13.2148H33.8574ZM31.875 3.78125V18H30.0684V3.78125H31.875ZM37.2949 16.4863H37.4805C38.5221 16.4863 39.3685 16.3398 40.0195 16.0469C40.6706 15.7539 41.1719 15.36 41.5234 14.8652C41.875 14.3704 42.1159 13.8138 42.2461 13.1953C42.3763 12.5703 42.4414 11.929 42.4414 11.2715V9.09375C42.4414 8.44922 42.3665 7.8763 42.2168 7.375C42.0736 6.8737 41.8717 6.45378 41.6113 6.11523C41.3574 5.77669 41.0677 5.51953 40.7422 5.34375C40.4167 5.16797 40.0716 5.08008 39.707 5.08008C39.2904 5.08008 38.916 5.16471 38.584 5.33398C38.2585 5.49674 37.9818 5.72786 37.7539 6.02734C37.5326 6.32682 37.3633 6.67839 37.2461 7.08203C37.1289 7.48568 37.0703 7.92513 37.0703 8.40039C37.0703 8.82357 37.1224 9.23372 37.2266 9.63086C37.3307 10.028 37.4902 10.3861 37.7051 10.7051C37.9199 11.0241 38.1868 11.278 38.5059 11.4668C38.8314 11.6491 39.2122 11.7402 39.6484 11.7402C40.0521 11.7402 40.4297 11.6621 40.7812 11.5059C41.1393 11.3431 41.4551 11.125 41.7285 10.8516C42.0085 10.5716 42.2298 10.2559 42.3926 9.9043C42.5618 9.55273 42.6595 9.1849 42.6855 8.80078H43.5449C43.5449 9.34115 43.4375 9.875 43.2227 10.4023C43.0143 10.9232 42.7214 11.3984 42.3438 11.8281C41.9661 12.2578 41.5234 12.6029 41.0156 12.8633C40.5078 13.1172 39.9544 13.2441 39.3555 13.2441C38.6523 13.2441 38.0436 13.1074 37.5293 12.834C37.015 12.5605 36.5918 12.196 36.2598 11.7402C35.9342 11.2845 35.6901 10.7767 35.5273 10.2168C35.3711 9.65039 35.293 9.07747 35.293 8.49805C35.293 7.82096 35.3874 7.1862 35.5762 6.59375C35.765 6.0013 36.0449 5.48047 36.416 5.03125C36.7871 4.57552 37.2461 4.2207 37.793 3.9668C38.3464 3.71289 38.9844 3.58594 39.707 3.58594C40.5208 3.58594 41.2142 3.7487 41.7871 4.07422C42.36 4.39974 42.8255 4.83594 43.1836 5.38281C43.5482 5.92969 43.8151 6.54492 43.9844 7.22852C44.1536 7.91211 44.2383 8.61523 44.2383 9.33789V9.99219C44.2383 10.7279 44.1895 11.4766 44.0918 12.2383C44.0007 12.9935 43.8216 13.7161 43.5547 14.4062C43.2943 15.0964 42.9134 15.7148 42.4121 16.2617C41.9108 16.8021 41.2565 17.2318 40.4492 17.5508C39.6484 17.8633 38.6589 18.0195 37.4805 18.0195H37.2949V16.4863ZM48.5449 16.4863H48.7305C49.7721 16.4863 50.6185 16.3398 51.2695 16.0469C51.9206 15.7539 52.4219 15.36 52.7734 14.8652C53.125 14.3704 53.3659 13.8138 53.4961 13.1953C53.6263 12.5703 53.6914 11.929 53.6914 11.2715V9.09375C53.6914 8.44922 53.6165 7.8763 53.4668 7.375C53.3236 6.8737 53.1217 6.45378 52.8613 6.11523C52.6074 5.77669 52.3177 5.51953 51.9922 5.34375C51.6667 5.16797 51.3216 5.08008 50.957 5.08008C50.5404 5.08008 50.166 5.16471 49.834 5.33398C49.5085 5.49674 49.2318 5.72786 49.0039 6.02734C48.7826 6.32682 48.6133 6.67839 48.4961 7.08203C48.3789 7.48568 48.3203 7.92513 48.3203 8.40039C48.3203 8.82357 48.3724 9.23372 48.4766 9.63086C48.5807 10.028 48.7402 10.3861 48.9551 10.7051C49.1699 11.0241 49.4368 11.278 49.7559 11.4668C50.0814 11.6491 50.4622 11.7402 50.8984 11.7402C51.3021 11.7402 51.6797 11.6621 52.0312 11.5059C52.3893 11.3431 52.7051 11.125 52.9785 10.8516C53.2585 10.5716 53.4798 10.2559 53.6426 9.9043C53.8118 9.55273 53.9095 9.1849 53.9355 8.80078H54.7949C54.7949 9.34115 54.6875 9.875 54.4727 10.4023C54.2643 10.9232 53.9714 11.3984 53.5938 11.8281C53.2161 12.2578 52.7734 12.6029 52.2656 12.8633C51.7578 13.1172 51.2044 13.2441 50.6055 13.2441C49.9023 13.2441 49.2936 13.1074 48.7793 12.834C48.265 12.5605 47.8418 12.196 47.5098 11.7402C47.1842 11.2845 46.9401 10.7767 46.7773 10.2168C46.6211 9.65039 46.543 9.07747 46.543 8.49805C46.543 7.82096 46.6374 7.1862 46.8262 6.59375C47.015 6.0013 47.2949 5.48047 47.666 5.03125C48.0371 4.57552 48.4961 4.2207 49.043 3.9668C49.5964 3.71289 50.2344 3.58594 50.957 3.58594C51.7708 3.58594 52.4642 3.7487 53.0371 4.07422C53.61 4.39974 54.0755 4.83594 54.4336 5.38281C54.7982 5.92969 55.0651 6.54492 55.2344 7.22852C55.4036 7.91211 55.4883 8.61523 55.4883 9.33789V9.99219C55.4883 10.7279 55.4395 11.4766 55.3418 12.2383C55.2507 12.9935 55.0716 13.7161 54.8047 14.4062C54.5443 15.0964 54.1634 15.7148 53.6621 16.2617C53.1608 16.8021 52.5065 17.2318 51.6992 17.5508C50.8984 17.8633 49.9089 18.0195 48.7305 18.0195H48.5449V16.4863ZM62.3535 12.2188V12.3164C62.3535 13.7422 62.194 15.0312 61.875 16.1836C61.556 17.3359 61.1491 18.3418 60.6543 19.2012C60.1595 20.0671 59.6387 20.7832 59.0918 21.3496C58.5449 21.9225 58.0404 22.3359 57.5781 22.5898L57.1973 21.4961C57.5814 21.2031 57.9688 20.793 58.3594 20.2656C58.75 19.7448 59.1113 19.1003 59.4434 18.332C59.7754 17.5703 60.0423 16.6914 60.2441 15.6953C60.446 14.6927 60.5469 13.5729 60.5469 12.3359V12.1992C60.5469 10.9622 60.4395 9.8457 60.2246 8.84961C60.0098 7.84701 59.7298 6.96484 59.3848 6.20312C59.0462 5.44141 58.6816 4.80013 58.291 4.2793C57.9069 3.75195 57.5423 3.34505 57.1973 3.05859L57.5781 1.95508C58.0404 2.20898 58.5449 2.6224 59.0918 3.19531C59.6387 3.76172 60.1595 4.47786 60.6543 5.34375C61.1491 6.20964 61.556 7.21875 61.875 8.37109C62.194 9.51693 62.3535 10.7995 62.3535 12.2188ZM72.5684 10.002H73.8574C74.4889 10.002 75.0098 9.89779 75.4199 9.68945C75.8366 9.47461 76.1458 9.1849 76.3477 8.82031C76.556 8.44922 76.6602 8.03255 76.6602 7.57031C76.6602 7.02344 76.569 6.56445 76.3867 6.19336C76.2044 5.82227 75.931 5.54232 75.5664 5.35352C75.2018 5.16471 74.7396 5.07031 74.1797 5.07031C73.6719 5.07031 73.2227 5.17122 72.832 5.37305C72.4479 5.56836 72.1452 5.84831 71.9238 6.21289C71.709 6.57747 71.6016 7.00716 71.6016 7.50195H69.7949C69.7949 6.7793 69.9772 6.12174 70.3418 5.5293C70.7064 4.93685 71.2174 4.46484 71.875 4.11328C72.5391 3.76172 73.3073 3.58594 74.1797 3.58594C75.0391 3.58594 75.791 3.73893 76.4355 4.04492C77.0801 4.3444 77.5814 4.79362 77.9395 5.39258C78.2975 5.98503 78.4766 6.72396 78.4766 7.60938C78.4766 7.96745 78.3919 8.35156 78.2227 8.76172C78.0599 9.16536 77.8027 9.54297 77.4512 9.89453C77.1061 10.2461 76.6569 10.5358 76.1035 10.7637C75.5501 10.985 74.8861 11.0957 74.1113 11.0957H72.5684V10.002ZM72.5684 11.4863V10.4023H74.1113C75.0163 10.4023 75.765 10.5098 76.3574 10.7246C76.9499 10.9395 77.4154 11.2259 77.7539 11.584C78.099 11.9421 78.3398 12.3359 78.4766 12.7656C78.6198 13.1888 78.6914 13.612 78.6914 14.0352C78.6914 14.6992 78.5775 15.2884 78.3496 15.8027C78.1283 16.3171 77.8125 16.7533 77.4023 17.1113C76.9987 17.4694 76.5234 17.7396 75.9766 17.9219C75.4297 18.1042 74.834 18.1953 74.1895 18.1953C73.571 18.1953 72.9883 18.1074 72.4414 17.9316C71.901 17.7559 71.4225 17.502 71.0059 17.1699C70.5892 16.8314 70.2637 16.418 70.0293 15.9297C69.7949 15.4349 69.6777 14.8717 69.6777 14.2402H71.4844C71.4844 14.735 71.5918 15.168 71.8066 15.5391C72.028 15.9102 72.3405 16.1999 72.7441 16.4082C73.1543 16.61 73.6361 16.7109 74.1895 16.7109C74.7428 16.7109 75.2181 16.6165 75.6152 16.4277C76.0189 16.2324 76.3281 15.9395 76.543 15.5488C76.7643 15.1582 76.875 14.6667 76.875 14.0742C76.875 13.4818 76.7513 12.9967 76.5039 12.6191C76.2565 12.235 75.9049 11.9518 75.4492 11.7695C75 11.5807 74.4694 11.4863 73.8574 11.4863H72.5684ZM90.3711 3.78125V4.79688L84.4824 18H82.5781L88.457 5.26562H80.7617V3.78125H90.3711ZM94.7168 11.2324L93.2715 10.8613L93.9844 3.78125H101.279V5.45117H95.5176L95.0879 9.31836C95.3483 9.16862 95.6771 9.02865 96.0742 8.89844C96.4779 8.76823 96.9401 8.70312 97.4609 8.70312C98.1185 8.70312 98.7077 8.81706 99.2285 9.04492C99.7493 9.26628 100.192 9.58529 100.557 10.002C100.928 10.4186 101.211 10.9199 101.406 11.5059C101.602 12.0918 101.699 12.7461 101.699 13.4688C101.699 14.1523 101.605 14.7806 101.416 15.3535C101.234 15.9264 100.957 16.4277 100.586 16.8574C100.215 17.2806 99.7461 17.6094 99.1797 17.8438C98.6198 18.0781 97.959 18.1953 97.1973 18.1953C96.6243 18.1953 96.0807 18.1172 95.5664 17.9609C95.0586 17.7982 94.6029 17.554 94.1992 17.2285C93.8021 16.8965 93.4766 16.4863 93.2227 15.998C92.9753 15.5033 92.819 14.9238 92.7539 14.2598H94.4727C94.5508 14.7936 94.707 15.2428 94.9414 15.6074C95.1758 15.972 95.4818 16.2487 95.8594 16.4375C96.2435 16.6198 96.6895 16.7109 97.1973 16.7109C97.627 16.7109 98.0078 16.6361 98.3398 16.4863C98.6719 16.3366 98.9518 16.1217 99.1797 15.8418C99.4076 15.5618 99.5801 15.2233 99.6973 14.8262C99.821 14.429 99.8828 13.9831 99.8828 13.4883C99.8828 13.0391 99.821 12.6224 99.6973 12.2383C99.5736 11.8542 99.388 11.5189 99.1406 11.2324C98.8997 10.946 98.6035 10.7246 98.252 10.5684C97.9004 10.4056 97.4967 10.3242 97.041 10.3242C96.4355 10.3242 95.9766 10.4056 95.6641 10.5684C95.3581 10.7311 95.0423 10.9525 94.7168 11.2324ZM107.637 11.2129V12.6973H102.871V11.2129H107.637ZM116.143 3.76172H116.299V5.29492H116.143C115.186 5.29492 114.385 5.45117 113.74 5.76367C113.096 6.06966 112.585 6.48307 112.207 7.00391C111.829 7.51823 111.556 8.09766 111.387 8.74219C111.224 9.38672 111.143 10.041 111.143 10.7051V12.7949C111.143 13.4264 111.217 13.9863 111.367 14.4746C111.517 14.9564 111.722 15.3633 111.982 15.6953C112.243 16.0273 112.536 16.278 112.861 16.4473C113.193 16.6165 113.538 16.7012 113.896 16.7012C114.313 16.7012 114.684 16.623 115.01 16.4668C115.335 16.304 115.609 16.0794 115.83 15.793C116.058 15.5 116.23 15.1549 116.348 14.7578C116.465 14.3607 116.523 13.9245 116.523 13.4492C116.523 13.026 116.471 12.6191 116.367 12.2285C116.263 11.8314 116.104 11.4798 115.889 11.1738C115.674 10.8613 115.404 10.6172 115.078 10.4414C114.759 10.2591 114.378 10.168 113.936 10.168C113.434 10.168 112.965 10.2917 112.529 10.5391C112.1 10.7799 111.745 11.099 111.465 11.4961C111.191 11.8867 111.035 12.3132 110.996 12.7754L110.039 12.7656C110.13 12.0365 110.299 11.4147 110.547 10.9004C110.801 10.3796 111.113 9.95638 111.484 9.63086C111.862 9.29883 112.282 9.05794 112.744 8.9082C113.213 8.75195 113.708 8.67383 114.229 8.67383C114.938 8.67383 115.55 8.80729 116.064 9.07422C116.579 9.34115 117.002 9.69922 117.334 10.1484C117.666 10.5911 117.91 11.0924 118.066 11.6523C118.229 12.2057 118.311 12.7754 118.311 13.3613C118.311 14.0319 118.216 14.6602 118.027 15.2461C117.839 15.832 117.555 16.3464 117.178 16.7891C116.807 17.2318 116.348 17.5768 115.801 17.8242C115.254 18.0716 114.619 18.1953 113.896 18.1953C113.128 18.1953 112.458 18.0391 111.885 17.7266C111.312 17.4076 110.837 16.9844 110.459 16.457C110.081 15.9297 109.798 15.3438 109.609 14.6992C109.421 14.0547 109.326 13.4004 109.326 12.7363V11.8867C109.326 10.8841 109.427 9.90104 109.629 8.9375C109.831 7.97396 110.179 7.10156 110.674 6.32031C111.175 5.53906 111.868 4.91732 112.754 4.45508C113.639 3.99284 114.769 3.76172 116.143 3.76172ZM129.775 16.5156V18H120.469V16.7012L125.127 11.5156C125.7 10.8776 126.143 10.3372 126.455 9.89453C126.774 9.44531 126.995 9.04492 127.119 8.69336C127.249 8.33529 127.314 7.9707 127.314 7.59961C127.314 7.13086 127.217 6.70768 127.021 6.33008C126.833 5.94596 126.553 5.63997 126.182 5.41211C125.811 5.18424 125.361 5.07031 124.834 5.07031C124.202 5.07031 123.675 5.19401 123.252 5.44141C122.835 5.68229 122.523 6.02083 122.314 6.45703C122.106 6.89323 122.002 7.39453 122.002 7.96094H120.195C120.195 7.16016 120.371 6.42773 120.723 5.76367C121.074 5.09961 121.595 4.57227 122.285 4.18164C122.975 3.78451 123.825 3.58594 124.834 3.58594C125.732 3.58594 126.501 3.74544 127.139 4.06445C127.777 4.37695 128.265 4.81966 128.604 5.39258C128.949 5.95898 129.121 6.62305 129.121 7.38477C129.121 7.80143 129.049 8.22461 128.906 8.6543C128.77 9.07747 128.577 9.50065 128.33 9.92383C128.089 10.347 127.806 10.7637 127.48 11.1738C127.161 11.584 126.82 11.9876 126.455 12.3848L122.646 16.5156H129.775ZM135.664 11.2129V12.6973H130.898V11.2129H135.664ZM146.162 9.75781V11.9258C146.162 13.0911 146.058 14.0742 145.85 14.875C145.641 15.6758 145.342 16.3203 144.951 16.8086C144.561 17.2969 144.089 17.6517 143.535 17.873C142.988 18.0879 142.37 18.1953 141.68 18.1953C141.133 18.1953 140.628 18.127 140.166 17.9902C139.704 17.8535 139.287 17.6354 138.916 17.3359C138.551 17.0299 138.239 16.6328 137.979 16.1445C137.718 15.6562 137.52 15.0638 137.383 14.3672C137.246 13.6706 137.178 12.8568 137.178 11.9258V9.75781C137.178 8.59245 137.282 7.61589 137.49 6.82812C137.705 6.04036 138.008 5.40885 138.398 4.93359C138.789 4.45182 139.258 4.10677 139.805 3.89844C140.358 3.6901 140.977 3.58594 141.66 3.58594C142.214 3.58594 142.721 3.6543 143.184 3.79102C143.652 3.92122 144.069 4.13281 144.434 4.42578C144.798 4.71224 145.107 5.09635 145.361 5.57812C145.622 6.05339 145.82 6.63607 145.957 7.32617C146.094 8.01628 146.162 8.82682 146.162 9.75781ZM144.346 12.2188V9.45508C144.346 8.81706 144.307 8.25716 144.229 7.77539C144.157 7.28711 144.049 6.87044 143.906 6.52539C143.763 6.18034 143.581 5.90039 143.359 5.68555C143.145 5.4707 142.894 5.31445 142.607 5.2168C142.327 5.11263 142.012 5.06055 141.66 5.06055C141.23 5.06055 140.85 5.14193 140.518 5.30469C140.186 5.46094 139.906 5.71159 139.678 6.05664C139.456 6.40169 139.287 6.85417 139.17 7.41406C139.053 7.97396 138.994 8.6543 138.994 9.45508V12.2188C138.994 12.8568 139.03 13.4199 139.102 13.9082C139.18 14.3965 139.294 14.8197 139.443 15.1777C139.593 15.5293 139.775 15.819 139.99 16.0469C140.205 16.2747 140.452 16.444 140.732 16.5547C141.019 16.6589 141.335 16.7109 141.68 16.7109C142.122 16.7109 142.51 16.6263 142.842 16.457C143.174 16.2878 143.451 16.0241 143.672 15.666C143.9 15.3014 144.069 14.8359 144.18 14.2695C144.29 13.6966 144.346 13.013 144.346 12.2188ZM157.412 9.75781V11.9258C157.412 13.0911 157.308 14.0742 157.1 14.875C156.891 15.6758 156.592 16.3203 156.201 16.8086C155.811 17.2969 155.339 17.6517 154.785 17.873C154.238 18.0879 153.62 18.1953 152.93 18.1953C152.383 18.1953 151.878 18.127 151.416 17.9902C150.954 17.8535 150.537 17.6354 150.166 17.3359C149.801 17.0299 149.489 16.6328 149.229 16.1445C148.968 15.6562 148.77 15.0638 148.633 14.3672C148.496 13.6706 148.428 12.8568 148.428 11.9258V9.75781C148.428 8.59245 148.532 7.61589 148.74 6.82812C148.955 6.04036 149.258 5.40885 149.648 4.93359C150.039 4.45182 150.508 4.10677 151.055 3.89844C151.608 3.6901 152.227 3.58594 152.91 3.58594C153.464 3.58594 153.971 3.6543 154.434 3.79102C154.902 3.92122 155.319 4.13281 155.684 4.42578C156.048 4.71224 156.357 5.09635 156.611 5.57812C156.872 6.05339 157.07 6.63607 157.207 7.32617C157.344 8.01628 157.412 8.82682 157.412 9.75781ZM155.596 12.2188V9.45508C155.596 8.81706 155.557 8.25716 155.479 7.77539C155.407 7.28711 155.299 6.87044 155.156 6.52539C155.013 6.18034 154.831 5.90039 154.609 5.68555C154.395 5.4707 154.144 5.31445 153.857 5.2168C153.577 5.11263 153.262 5.06055 152.91 5.06055C152.48 5.06055 152.1 5.14193 151.768 5.30469C151.436 5.46094 151.156 5.71159 150.928 6.05664C150.706 6.40169 150.537 6.85417 150.42 7.41406C150.303 7.97396 150.244 8.6543 150.244 9.45508V12.2188C150.244 12.8568 150.28 13.4199 150.352 13.9082C150.43 14.3965 150.544 14.8197 150.693 15.1777C150.843 15.5293 151.025 15.819 151.24 16.0469C151.455 16.2747 151.702 16.444 151.982 16.5547C152.269 16.6589 152.585 16.7109 152.93 16.7109C153.372 16.7109 153.76 16.6263 154.092 16.457C154.424 16.2878 154.701 16.0241 154.922 15.666C155.15 15.3014 155.319 14.8359 155.43 14.2695C155.54 13.6966 155.596 13.013 155.596 12.2188Z" fill="white"/>
<path d="M10.1465 41.1523C10.1465 42.0182 9.94466 42.7539 9.54102 43.3594C9.14388 43.9583 8.60352 44.4141 7.91992 44.7266C7.24284 45.0391 6.47786 45.1953 5.625 45.1953C4.77214 45.1953 4.00391 45.0391 3.32031 44.7266C2.63672 44.4141 2.09635 43.9583 1.69922 43.3594C1.30208 42.7539 1.10352 42.0182 1.10352 41.1523C1.10352 40.5859 1.21094 40.0684 1.42578 39.5996C1.64714 39.1243 1.95638 38.7109 2.35352 38.3594C2.75716 38.0078 3.23242 37.7376 3.7793 37.5488C4.33268 37.3535 4.94141 37.2559 5.60547 37.2559C6.47786 37.2559 7.25586 37.4251 7.93945 37.7637C8.62305 38.0957 9.16016 38.5547 9.55078 39.1406C9.94792 39.7266 10.1465 40.3971 10.1465 41.1523ZM8.33008 41.1133C8.33008 40.5859 8.21615 40.1204 7.98828 39.7168C7.76042 39.3066 7.44141 38.9876 7.03125 38.7598C6.62109 38.5319 6.14583 38.418 5.60547 38.418C5.05208 38.418 4.57357 38.5319 4.16992 38.7598C3.77279 38.9876 3.46354 39.3066 3.24219 39.7168C3.02083 40.1204 2.91016 40.5859 2.91016 41.1133C2.91016 41.6602 3.01758 42.1289 3.23242 42.5195C3.45378 42.9036 3.76628 43.1999 4.16992 43.4082C4.58008 43.61 5.0651 43.7109 5.625 43.7109C6.1849 43.7109 6.66667 43.61 7.07031 43.4082C7.47396 43.1999 7.7832 42.9036 7.99805 42.5195C8.2194 42.1289 8.33008 41.6602 8.33008 41.1133ZM9.81445 34.4824C9.81445 35.1725 9.63216 35.7943 9.26758 36.3477C8.90299 36.901 8.40495 37.3372 7.77344 37.6562C7.14193 37.9753 6.42578 38.1348 5.625 38.1348C4.8112 38.1348 4.08529 37.9753 3.44727 37.6562C2.81576 37.3372 2.32096 36.901 1.96289 36.3477C1.60482 35.7943 1.42578 35.1725 1.42578 34.4824C1.42578 33.6556 1.60482 32.9525 1.96289 32.373C2.32747 31.7936 2.82552 31.3509 3.45703 31.0449C4.08854 30.7389 4.80794 30.5859 5.61523 30.5859C6.42904 30.5859 7.15169 30.7389 7.7832 31.0449C8.41471 31.3509 8.90951 31.7936 9.26758 32.373C9.63216 32.9525 9.81445 33.6556 9.81445 34.4824ZM8.00781 34.5117C8.00781 34.0365 7.9069 33.6165 7.70508 33.252C7.50326 32.8874 7.22331 32.6009 6.86523 32.3926C6.50716 32.1777 6.09049 32.0703 5.61523 32.0703C5.13997 32.0703 4.72331 32.1712 4.36523 32.373C4.01367 32.5684 3.73698 32.8483 3.53516 33.2129C3.33984 33.5775 3.24219 34.0104 3.24219 34.5117C3.24219 35 3.33984 35.4264 3.53516 35.791C3.73698 36.1556 4.01693 36.4388 4.375 36.6406C4.73307 36.8424 5.14974 36.9434 5.625 36.9434C6.10026 36.9434 6.51367 36.8424 6.86523 36.6406C7.22331 36.4388 7.50326 36.1556 7.70508 35.791C7.9069 35.4264 8.00781 35 8.00781 34.5117ZM17.5195 39.3164V39.2188C17.5195 37.7995 17.679 36.5169 17.998 35.3711C18.3171 34.2188 18.724 33.2096 19.2188 32.3438C19.7135 31.4779 20.2344 30.7617 20.7812 30.1953C21.3281 29.6224 21.8327 29.209 22.2949 28.9551L22.6758 30.1465C22.2917 30.4395 21.901 30.8431 21.5039 31.3574C21.1133 31.8717 20.752 32.5033 20.4199 33.252C20.0944 34.0007 19.8307 34.8698 19.6289 35.8594C19.4271 36.849 19.3262 37.9622 19.3262 39.1992V39.3359C19.3262 40.5729 19.4271 41.6895 19.6289 42.6855C19.8307 43.6751 20.0944 44.5475 20.4199 45.3027C20.752 46.0579 21.1133 46.6992 21.5039 47.2266C21.901 47.7604 22.2917 48.1836 22.6758 48.4961L22.2949 49.5898C21.8327 49.3359 21.3281 48.9225 20.7812 48.3496C20.2344 47.7832 19.7135 47.0671 19.2188 46.2012C18.724 45.3418 18.3171 44.3359 17.998 43.1836C17.679 42.0312 17.5195 40.7422 17.5195 39.3164ZM26.0449 43.4863H26.2305C27.2721 43.4863 28.1185 43.3398 28.7695 43.0469C29.4206 42.7539 29.9219 42.36 30.2734 41.8652C30.625 41.3704 30.8659 40.8138 30.9961 40.1953C31.1263 39.5703 31.1914 38.929 31.1914 38.2715V36.0938C31.1914 35.4492 31.1165 34.8763 30.9668 34.375C30.8236 33.8737 30.6217 33.4538 30.3613 33.1152C30.1074 32.7767 29.8177 32.5195 29.4922 32.3438C29.1667 32.168 28.8216 32.0801 28.457 32.0801C28.0404 32.0801 27.666 32.1647 27.334 32.334C27.0085 32.4967 26.7318 32.7279 26.5039 33.0273C26.2826 33.3268 26.1133 33.6784 25.9961 34.082C25.8789 34.4857 25.8203 34.9251 25.8203 35.4004C25.8203 35.8236 25.8724 36.2337 25.9766 36.6309C26.0807 37.028 26.2402 37.3861 26.4551 37.7051C26.6699 38.0241 26.9368 38.278 27.2559 38.4668C27.5814 38.6491 27.9622 38.7402 28.3984 38.7402C28.8021 38.7402 29.1797 38.6621 29.5312 38.5059C29.8893 38.3431 30.2051 38.125 30.4785 37.8516C30.7585 37.5716 30.9798 37.2559 31.1426 36.9043C31.3118 36.5527 31.4095 36.1849 31.4355 35.8008H32.2949C32.2949 36.3411 32.1875 36.875 31.9727 37.4023C31.7643 37.9232 31.4714 38.3984 31.0938 38.8281C30.7161 39.2578 30.2734 39.6029 29.7656 39.8633C29.2578 40.1172 28.7044 40.2441 28.1055 40.2441C27.4023 40.2441 26.7936 40.1074 26.2793 39.834C25.765 39.5605 25.3418 39.196 25.0098 38.7402C24.6842 38.2845 24.4401 37.7767 24.2773 37.2168C24.1211 36.6504 24.043 36.0775 24.043 35.498C24.043 34.821 24.1374 34.1862 24.3262 33.5938C24.515 33.0013 24.7949 32.4805 25.166 32.0312C25.5371 31.5755 25.9961 31.2207 26.543 30.9668C27.0964 30.7129 27.7344 30.5859 28.457 30.5859C29.2708 30.5859 29.9642 30.7487 30.5371 31.0742C31.11 31.3997 31.5755 31.8359 31.9336 32.3828C32.2982 32.9297 32.5651 33.5449 32.7344 34.2285C32.9036 34.9121 32.9883 35.6152 32.9883 36.3379V36.9922C32.9883 37.7279 32.9395 38.4766 32.8418 39.2383C32.7507 39.9935 32.5716 40.7161 32.3047 41.4062C32.0443 42.0964 31.6634 42.7148 31.1621 43.2617C30.6608 43.8021 30.0065 44.2318 29.1992 44.5508C28.3984 44.8633 27.4089 45.0195 26.2305 45.0195H26.0449V43.4863ZM42.4316 30.7617H42.5879V32.2949H42.4316C41.4746 32.2949 40.6738 32.4512 40.0293 32.7637C39.3848 33.0697 38.8737 33.4831 38.4961 34.0039C38.1185 34.5182 37.8451 35.0977 37.6758 35.7422C37.513 36.3867 37.4316 37.041 37.4316 37.7051V39.7949C37.4316 40.4264 37.5065 40.9863 37.6562 41.4746C37.806 41.9564 38.0111 42.3633 38.2715 42.6953C38.5319 43.0273 38.8249 43.278 39.1504 43.4473C39.4824 43.6165 39.8275 43.7012 40.1855 43.7012C40.6022 43.7012 40.9733 43.623 41.2988 43.4668C41.6243 43.304 41.8978 43.0794 42.1191 42.793C42.347 42.5 42.5195 42.1549 42.6367 41.7578C42.7539 41.3607 42.8125 40.9245 42.8125 40.4492C42.8125 40.026 42.7604 39.6191 42.6562 39.2285C42.5521 38.8314 42.3926 38.4798 42.1777 38.1738C41.9629 37.8613 41.6927 37.6172 41.3672 37.4414C41.0482 37.2591 40.6673 37.168 40.2246 37.168C39.7233 37.168 39.2546 37.2917 38.8184 37.5391C38.3887 37.7799 38.0339 38.099 37.7539 38.4961C37.4805 38.8867 37.3242 39.3132 37.2852 39.7754L36.3281 39.7656C36.4193 39.0365 36.5885 38.4147 36.8359 37.9004C37.0898 37.3796 37.4023 36.9564 37.7734 36.6309C38.151 36.2988 38.571 36.0579 39.0332 35.9082C39.502 35.752 39.9967 35.6738 40.5176 35.6738C41.2272 35.6738 41.8392 35.8073 42.3535 36.0742C42.8678 36.3411 43.291 36.6992 43.623 37.1484C43.9551 37.5911 44.1992 38.0924 44.3555 38.6523C44.5182 39.2057 44.5996 39.7754 44.5996 40.3613C44.5996 41.0319 44.5052 41.6602 44.3164 42.2461C44.1276 42.832 43.8444 43.3464 43.4668 43.7891C43.0957 44.2318 42.6367 44.5768 42.0898 44.8242C41.543 45.0716 40.9082 45.1953 40.1855 45.1953C39.4173 45.1953 38.7467 45.0391 38.1738 44.7266C37.6009 44.4076 37.1257 43.9844 36.748 43.457C36.3704 42.9297 36.0872 42.3438 35.8984 41.6992C35.7096 41.0547 35.6152 40.4004 35.6152 39.7363V38.8867C35.6152 37.8841 35.7161 36.901 35.918 35.9375C36.1198 34.974 36.4681 34.1016 36.9629 33.3203C37.4642 32.5391 38.1576 31.9173 39.043 31.4551C39.9284 30.9928 41.0579 30.7617 42.4316 30.7617ZM55.6738 36.7578V38.9258C55.6738 40.0911 55.5697 41.0742 55.3613 41.875C55.153 42.6758 54.8535 43.3203 54.4629 43.8086C54.0723 44.2969 53.6003 44.6517 53.0469 44.873C52.5 45.0879 51.8815 45.1953 51.1914 45.1953C50.6445 45.1953 50.14 45.127 49.6777 44.9902C49.2155 44.8535 48.7988 44.6354 48.4277 44.3359C48.0632 44.0299 47.7507 43.6328 47.4902 43.1445C47.2298 42.6562 47.0312 42.0638 46.8945 41.3672C46.7578 40.6706 46.6895 39.8568 46.6895 38.9258V36.7578C46.6895 35.5924 46.7936 34.6159 47.002 33.8281C47.2168 33.0404 47.5195 32.4089 47.9102 31.9336C48.3008 31.4518 48.7695 31.1068 49.3164 30.8984C49.8698 30.6901 50.4883 30.5859 51.1719 30.5859C51.7253 30.5859 52.2331 30.6543 52.6953 30.791C53.1641 30.9212 53.5807 31.1328 53.9453 31.4258C54.3099 31.7122 54.6191 32.0964 54.873 32.5781C55.1335 33.0534 55.332 33.6361 55.4688 34.3262C55.6055 35.0163 55.6738 35.8268 55.6738 36.7578ZM53.8574 39.2188V36.4551C53.8574 35.8171 53.8184 35.2572 53.7402 34.7754C53.6686 34.2871 53.5612 33.8704 53.418 33.5254C53.2747 33.1803 53.0924 32.9004 52.8711 32.6855C52.6562 32.4707 52.4056 32.3145 52.1191 32.2168C51.8392 32.1126 51.5234 32.0605 51.1719 32.0605C50.7422 32.0605 50.3613 32.1419 50.0293 32.3047C49.6973 32.4609 49.4173 32.7116 49.1895 33.0566C48.9681 33.4017 48.7988 33.8542 48.6816 34.4141C48.5645 34.974 48.5059 35.6543 48.5059 36.4551V39.2188C48.5059 39.8568 48.5417 40.4199 48.6133 40.9082C48.6914 41.3965 48.8053 41.8197 48.9551 42.1777C49.1048 42.5293 49.2871 42.819 49.502 43.0469C49.7168 43.2747 49.9642 43.444 50.2441 43.5547C50.5306 43.6589 50.8464 43.7109 51.1914 43.7109C51.6341 43.7109 52.0215 43.6263 52.3535 43.457C52.6855 43.2878 52.9622 43.0241 53.1836 42.666C53.4115 42.3014 53.5807 41.8359 53.6914 41.2695C53.8021 40.6966 53.8574 40.013 53.8574 39.2188ZM62.3535 39.2188V39.3164C62.3535 40.7422 62.194 42.0312 61.875 43.1836C61.556 44.3359 61.1491 45.3418 60.6543 46.2012C60.1595 47.0671 59.6387 47.7832 59.0918 48.3496C58.5449 48.9225 58.0404 49.3359 57.5781 49.5898L57.1973 48.4961C57.5814 48.2031 57.9688 47.793 58.3594 47.2656C58.75 46.7448 59.1113 46.1003 59.4434 45.332C59.7754 44.5703 60.0423 43.6914 60.2441 42.6953C60.446 41.6927 60.5469 40.5729 60.5469 39.3359V39.1992C60.5469 37.9622 60.4395 36.8457 60.2246 35.8496C60.0098 34.847 59.7298 33.9648 59.3848 33.2031C59.0462 32.4414 58.6816 31.8001 58.291 31.2793C57.9069 30.752 57.5423 30.3451 57.1973 30.0586L57.5781 28.9551C58.0404 29.209 58.5449 29.6224 59.0918 30.1953C59.6387 30.7617 60.1595 31.4779 60.6543 32.3438C61.1491 33.2096 61.556 34.2188 61.875 35.3711C62.194 36.5169 62.3535 37.7995 62.3535 39.2188ZM76.8652 30.7617H77.0215V32.2949H76.8652C75.9082 32.2949 75.1074 32.4512 74.4629 32.7637C73.8184 33.0697 73.3073 33.4831 72.9297 34.0039C72.5521 34.5182 72.2786 35.0977 72.1094 35.7422C71.9466 36.3867 71.8652 37.041 71.8652 37.7051V39.7949C71.8652 40.4264 71.9401 40.9863 72.0898 41.4746C72.2396 41.9564 72.4447 42.3633 72.7051 42.6953C72.9655 43.0273 73.2585 43.278 73.584 43.4473C73.916 43.6165 74.2611 43.7012 74.6191 43.7012C75.0358 43.7012 75.4069 43.623 75.7324 43.4668C76.0579 43.304 76.3314 43.0794 76.5527 42.793C76.7806 42.5 76.9531 42.1549 77.0703 41.7578C77.1875 41.3607 77.2461 40.9245 77.2461 40.4492C77.2461 40.026 77.194 39.6191 77.0898 39.2285C76.9857 38.8314 76.8262 38.4798 76.6113 38.1738C76.3965 37.8613 76.1263 37.6172 75.8008 37.4414C75.4818 37.2591 75.1009 37.168 74.6582 37.168C74.1569 37.168 73.6882 37.2917 73.252 37.5391C72.8223 37.7799 72.4674 38.099 72.1875 38.4961C71.9141 38.8867 71.7578 39.3132 71.7188 39.7754L70.7617 39.7656C70.8529 39.0365 71.0221 38.4147 71.2695 37.9004C71.5234 37.3796 71.8359 36.9564 72.207 36.6309C72.5846 36.2988 73.0046 36.0579 73.4668 35.9082C73.9355 35.752 74.4303 35.6738 74.9512 35.6738C75.6608 35.6738 76.2728 35.8073 76.7871 36.0742C77.3014 36.3411 77.7246 36.6992 78.0566 37.1484C78.3887 37.5911 78.6328 38.0924 78.7891 38.6523C78.9518 39.2057 79.0332 39.7754 79.0332 40.3613C79.0332 41.0319 78.9388 41.6602 78.75 42.2461C78.5612 42.832 78.278 43.3464 77.9004 43.7891C77.5293 44.2318 77.0703 44.5768 76.5234 44.8242C75.9766 45.0716 75.3418 45.1953 74.6191 45.1953C73.8509 45.1953 73.1803 45.0391 72.6074 44.7266C72.0345 44.4076 71.5592 43.9844 71.1816 43.457C70.804 42.9297 70.5208 42.3438 70.332 41.6992C70.1432 41.0547 70.0488 40.4004 70.0488 39.7363V38.8867C70.0488 37.8841 70.1497 36.901 70.3516 35.9375C70.5534 34.974 70.9017 34.1016 71.3965 33.3203C71.8978 32.5391 72.5911 31.9173 73.4766 31.4551C74.362 30.9928 75.4915 30.7617 76.8652 30.7617ZM90.1074 36.7578V38.9258C90.1074 40.0911 90.0033 41.0742 89.7949 41.875C89.5866 42.6758 89.2871 43.3203 88.8965 43.8086C88.5059 44.2969 88.0339 44.6517 87.4805 44.873C86.9336 45.0879 86.3151 45.1953 85.625 45.1953C85.0781 45.1953 84.5736 45.127 84.1113 44.9902C83.6491 44.8535 83.2324 44.6354 82.8613 44.3359C82.4967 44.0299 82.1842 43.6328 81.9238 43.1445C81.6634 42.6562 81.4648 42.0638 81.3281 41.3672C81.1914 40.6706 81.123 39.8568 81.123 38.9258V36.7578C81.123 35.5924 81.2272 34.6159 81.4355 33.8281C81.6504 33.0404 81.9531 32.4089 82.3438 31.9336C82.7344 31.4518 83.2031 31.1068 83.75 30.8984C84.3034 30.6901 84.9219 30.5859 85.6055 30.5859C86.1589 30.5859 86.6667 30.6543 87.1289 30.791C87.5977 30.9212 88.0143 31.1328 88.3789 31.4258C88.7435 31.7122 89.0527 32.0964 89.3066 32.5781C89.5671 33.0534 89.7656 33.6361 89.9023 34.3262C90.0391 35.0163 90.1074 35.8268 90.1074 36.7578ZM88.291 39.2188V36.4551C88.291 35.8171 88.252 35.2572 88.1738 34.7754C88.1022 34.2871 87.9948 33.8704 87.8516 33.5254C87.7083 33.1803 87.526 32.9004 87.3047 32.6855C87.0898 32.4707 86.8392 32.3145 86.5527 32.2168C86.2728 32.1126 85.957 32.0605 85.6055 32.0605C85.1758 32.0605 84.7949 32.1419 84.4629 32.3047C84.1309 32.4609 83.8509 32.7116 83.623 33.0566C83.4017 33.4017 83.2324 33.8542 83.1152 34.4141C82.998 34.974 82.9395 35.6543 82.9395 36.4551V39.2188C82.9395 39.8568 82.9753 40.4199 83.0469 40.9082C83.125 41.3965 83.2389 41.8197 83.3887 42.1777C83.5384 42.5293 83.7207 42.819 83.9355 43.0469C84.1504 43.2747 84.3978 43.444 84.6777 43.5547C84.9642 43.6589 85.2799 43.7109 85.625 43.7109C86.0677 43.7109 86.4551 43.6263 86.7871 43.457C87.1191 43.2878 87.3958 43.0241 87.6172 42.666C87.8451 42.3014 88.0143 41.8359 88.125 41.2695C88.2357 40.6966 88.291 40.013 88.291 39.2188ZM94.2285 43.4863H94.4141C95.4557 43.4863 96.3021 43.3398 96.9531 43.0469C97.6042 42.7539 98.1055 42.36 98.457 41.8652C98.8086 41.3704 99.0495 40.8138 99.1797 40.1953C99.3099 39.5703 99.375 38.929 99.375 38.2715V36.0938C99.375 35.4492 99.3001 34.8763 99.1504 34.375C99.0072 33.8737 98.8053 33.4538 98.5449 33.1152C98.291 32.7767 98.0013 32.5195 97.6758 32.3438C97.3503 32.168 97.0052 32.0801 96.6406 32.0801C96.224 32.0801 95.8496 32.1647 95.5176 32.334C95.1921 32.4967 94.9154 32.7279 94.6875 33.0273C94.4661 33.3268 94.2969 33.6784 94.1797 34.082C94.0625 34.4857 94.0039 34.9251 94.0039 35.4004C94.0039 35.8236 94.056 36.2337 94.1602 36.6309C94.2643 37.028 94.4238 37.3861 94.6387 37.7051C94.8535 38.0241 95.1204 38.278 95.4395 38.4668C95.765 38.6491 96.1458 38.7402 96.582 38.7402C96.9857 38.7402 97.3633 38.6621 97.7148 38.5059C98.0729 38.3431 98.3887 38.125 98.6621 37.8516C98.9421 37.5716 99.1634 37.2559 99.3262 36.9043C99.4954 36.5527 99.5931 36.1849 99.6191 35.8008H100.479C100.479 36.3411 100.371 36.875 100.156 37.4023C99.9479 37.9232 99.6549 38.3984 99.2773 38.8281C98.8997 39.2578 98.457 39.6029 97.9492 39.8633C97.4414 40.1172 96.888 40.2441 96.2891 40.2441C95.5859 40.2441 94.9772 40.1074 94.4629 39.834C93.9486 39.5605 93.5254 39.196 93.1934 38.7402C92.8678 38.2845 92.6237 37.7767 92.4609 37.2168C92.3047 36.6504 92.2266 36.0775 92.2266 35.498C92.2266 34.821 92.321 34.1862 92.5098 33.5938C92.6986 33.0013 92.9785 32.4805 93.3496 32.0312C93.7207 31.5755 94.1797 31.2207 94.7266 30.9668C95.2799 30.7129 95.918 30.5859 96.6406 30.5859C97.4544 30.5859 98.1478 30.7487 98.7207 31.0742C99.2936 31.3997 99.7591 31.8359 100.117 32.3828C100.482 32.9297 100.749 33.5449 100.918 34.2285C101.087 34.9121 101.172 35.6152 101.172 36.3379V36.9922C101.172 37.7279 101.123 38.4766 101.025 39.2383C100.934 39.9935 100.755 40.7161 100.488 41.4062C100.228 42.0964 99.847 42.7148 99.3457 43.2617C98.8444 43.8021 98.1901 44.2318 97.3828 44.5508C96.582 44.8633 95.5924 45.0195 94.4141 45.0195H94.2285V43.4863ZM107.637 38.2129V39.6973H102.871V38.2129H107.637ZM118.525 43.5156V45H109.219V43.7012L113.877 38.5156C114.45 37.8776 114.893 37.3372 115.205 36.8945C115.524 36.4453 115.745 36.0449 115.869 35.6934C115.999 35.3353 116.064 34.9707 116.064 34.5996C116.064 34.1309 115.967 33.7077 115.771 33.3301C115.583 32.946 115.303 32.64 114.932 32.4121C114.561 32.1842 114.111 32.0703 113.584 32.0703C112.952 32.0703 112.425 32.194 112.002 32.4414C111.585 32.6823 111.273 33.0208 111.064 33.457C110.856 33.8932 110.752 34.3945 110.752 34.9609H108.945C108.945 34.1602 109.121 33.4277 109.473 32.7637C109.824 32.0996 110.345 31.5723 111.035 31.1816C111.725 30.7845 112.575 30.5859 113.584 30.5859C114.482 30.5859 115.251 30.7454 115.889 31.0645C116.527 31.377 117.015 31.8197 117.354 32.3926C117.699 32.959 117.871 33.623 117.871 34.3848C117.871 34.8014 117.799 35.2246 117.656 35.6543C117.52 36.0775 117.327 36.5007 117.08 36.9238C116.839 37.347 116.556 37.7637 116.23 38.1738C115.911 38.584 115.57 38.9876 115.205 39.3848L111.396 43.5156H118.525ZM122.256 43.4863H122.441C123.483 43.4863 124.329 43.3398 124.98 43.0469C125.632 42.7539 126.133 42.36 126.484 41.8652C126.836 41.3704 127.077 40.8138 127.207 40.1953C127.337 39.5703 127.402 38.929 127.402 38.2715V36.0938C127.402 35.4492 127.327 34.8763 127.178 34.375C127.035 33.8737 126.833 33.4538 126.572 33.1152C126.318 32.7767 126.029 32.5195 125.703 32.3438C125.378 32.168 125.033 32.0801 124.668 32.0801C124.251 32.0801 123.877 32.1647 123.545 32.334C123.219 32.4967 122.943 32.7279 122.715 33.0273C122.493 33.3268 122.324 33.6784 122.207 34.082C122.09 34.4857 122.031 34.9251 122.031 35.4004C122.031 35.8236 122.083 36.2337 122.188 36.6309C122.292 37.028 122.451 37.3861 122.666 37.7051C122.881 38.0241 123.148 38.278 123.467 38.4668C123.792 38.6491 124.173 38.7402 124.609 38.7402C125.013 38.7402 125.391 38.6621 125.742 38.5059C126.1 38.3431 126.416 38.125 126.689 37.8516C126.969 37.5716 127.191 37.2559 127.354 36.9043C127.523 36.5527 127.62 36.1849 127.646 35.8008H128.506C128.506 36.3411 128.398 36.875 128.184 37.4023C127.975 37.9232 127.682 38.3984 127.305 38.8281C126.927 39.2578 126.484 39.6029 125.977 39.8633C125.469 40.1172 124.915 40.2441 124.316 40.2441C123.613 40.2441 123.005 40.1074 122.49 39.834C121.976 39.5605 121.553 39.196 121.221 38.7402C120.895 38.2845 120.651 37.7767 120.488 37.2168C120.332 36.6504 120.254 36.0775 120.254 35.498C120.254 34.821 120.348 34.1862 120.537 33.5938C120.726 33.0013 121.006 32.4805 121.377 32.0312C121.748 31.5755 122.207 31.2207 122.754 30.9668C123.307 30.7129 123.945 30.5859 124.668 30.5859C125.482 30.5859 126.175 30.7487 126.748 31.0742C127.321 31.3997 127.786 31.8359 128.145 32.3828C128.509 32.9297 128.776 33.5449 128.945 34.2285C129.115 34.9121 129.199 35.6152 129.199 36.3379V36.9922C129.199 37.7279 129.15 38.4766 129.053 39.2383C128.962 39.9935 128.783 40.7161 128.516 41.4062C128.255 42.0964 127.874 42.7148 127.373 43.2617C126.872 43.8021 126.217 44.2318 125.41 44.5508C124.609 44.8633 123.62 45.0195 122.441 45.0195H122.256V43.4863ZM135.664 38.2129V39.6973H130.898V38.2129H135.664ZM146.162 36.7578V38.9258C146.162 40.0911 146.058 41.0742 145.85 41.875C145.641 42.6758 145.342 43.3203 144.951 43.8086C144.561 44.2969 144.089 44.6517 143.535 44.873C142.988 45.0879 142.37 45.1953 141.68 45.1953C141.133 45.1953 140.628 45.127 140.166 44.9902C139.704 44.8535 139.287 44.6354 138.916 44.3359C138.551 44.0299 138.239 43.6328 137.979 43.1445C137.718 42.6562 137.52 42.0638 137.383 41.3672C137.246 40.6706 137.178 39.8568 137.178 38.9258V36.7578C137.178 35.5924 137.282 34.6159 137.49 33.8281C137.705 33.0404 138.008 32.4089 138.398 31.9336C138.789 31.4518 139.258 31.1068 139.805 30.8984C140.358 30.6901 140.977 30.5859 141.66 30.5859C142.214 30.5859 142.721 30.6543 143.184 30.791C143.652 30.9212 144.069 31.1328 144.434 31.4258C144.798 31.7122 145.107 32.0964 145.361 32.5781C145.622 33.0534 145.82 33.6361 145.957 34.3262C146.094 35.0163 146.162 35.8268 146.162 36.7578ZM144.346 39.2188V36.4551C144.346 35.8171 144.307 35.2572 144.229 34.7754C144.157 34.2871 144.049 33.8704 143.906 33.5254C143.763 33.1803 143.581 32.9004 143.359 32.6855C143.145 32.4707 142.894 32.3145 142.607 32.2168C142.327 32.1126 142.012 32.0605 141.66 32.0605C141.23 32.0605 140.85 32.1419 140.518 32.3047C140.186 32.4609 139.906 32.7116 139.678 33.0566C139.456 33.4017 139.287 33.8542 139.17 34.4141C139.053 34.974 138.994 35.6543 138.994 36.4551V39.2188C138.994 39.8568 139.03 40.4199 139.102 40.9082C139.18 41.3965 139.294 41.8197 139.443 42.1777C139.593 42.5293 139.775 42.819 139.99 43.0469C140.205 43.2747 140.452 43.444 140.732 43.5547C141.019 43.6589 141.335 43.7109 141.68 43.7109C142.122 43.7109 142.51 43.6263 142.842 43.457C143.174 43.2878 143.451 43.0241 143.672 42.666C143.9 42.3014 144.069 41.8359 144.18 41.2695C144.29 40.6966 144.346 40.013 144.346 39.2188ZM157.676 30.7812V31.7969L151.787 45H149.883L155.762 32.2656H148.066V30.7812H157.676Z" fill="white"/>
<path d="M8.25781 61.625V62.8594H2.77344V73H1.27344V61.625H8.25781ZM2.42188 66.2578H5.52344C6.35677 66.2578 7.0599 66.3984 7.63281 66.6797C8.20573 66.9557 8.64062 67.3438 8.9375 67.8438C9.23438 68.3438 9.38281 68.9297 9.38281 69.6016C9.38281 70.1016 9.29948 70.5599 9.13281 70.9766C8.96615 71.388 8.71875 71.7474 8.39062 72.0547C8.0625 72.3568 7.65885 72.5911 7.17969 72.7578C6.70052 72.9193 6.14844 73 5.52344 73H1.27344V61.625H2.78125V71.7734H5.52344C6.08073 71.7734 6.53125 71.6719 6.875 71.4688C7.22396 71.2604 7.47917 70.9896 7.64062 70.6562C7.80208 70.3229 7.88281 69.9661 7.88281 69.5859C7.88281 69.2057 7.80208 68.8568 7.64062 68.5391C7.47917 68.2214 7.22396 67.9688 6.875 67.7812C6.53125 67.5885 6.08073 67.4922 5.52344 67.4922H2.42188V66.2578ZM14.7031 73.1562C14.1146 73.1562 13.5807 73.0573 13.1016 72.8594C12.6276 72.6562 12.2188 72.3724 11.875 72.0078C11.5365 71.6432 11.276 71.2109 11.0938 70.7109C10.9115 70.2109 10.8203 69.6641 10.8203 69.0703V68.7422C10.8203 68.0547 10.9219 67.4427 11.125 66.9062C11.3281 66.3646 11.6042 65.9062 11.9531 65.5312C12.3021 65.1562 12.6979 64.8724 13.1406 64.6797C13.5833 64.487 14.0417 64.3906 14.5156 64.3906C15.1198 64.3906 15.6406 64.4948 16.0781 64.7031C16.5208 64.9115 16.8828 65.2031 17.1641 65.5781C17.4453 65.9479 17.6536 66.3854 17.7891 66.8906C17.9245 67.3906 17.9922 67.9375 17.9922 68.5312V69.1797H11.6797V68H16.5469V67.8906C16.526 67.5156 16.4479 67.151 16.3125 66.7969C16.1823 66.4427 15.974 66.151 15.6875 65.9219C15.401 65.6927 15.0104 65.5781 14.5156 65.5781C14.1875 65.5781 13.8854 65.6484 13.6094 65.7891C13.3333 65.9245 13.0964 66.1276 12.8984 66.3984C12.7005 66.6693 12.5469 67 12.4375 67.3906C12.3281 67.7812 12.2734 68.2318 12.2734 68.7422V69.0703C12.2734 69.4714 12.3281 69.849 12.4375 70.2031C12.5521 70.5521 12.7161 70.8594 12.9297 71.125C13.1484 71.3906 13.4115 71.599 13.7188 71.75C14.0312 71.901 14.3854 71.9766 14.7812 71.9766C15.2917 71.9766 15.724 71.8724 16.0781 71.6641C16.4323 71.4557 16.7422 71.1771 17.0078 70.8281L17.8828 71.5234C17.7005 71.7995 17.4688 72.0625 17.1875 72.3125C16.9062 72.5625 16.5599 72.7656 16.1484 72.9219C15.7422 73.0781 15.2604 73.1562 14.7031 73.1562ZM22.8359 68.9609H21.2812V68.0703H22.7188C23.1198 68.0703 23.4375 68.0208 23.6719 67.9219C23.9062 67.8177 24.0729 67.6745 24.1719 67.4922C24.2708 67.3099 24.3203 67.0964 24.3203 66.8516C24.3203 66.6328 24.263 66.4271 24.1484 66.2344C24.0391 66.0365 23.862 65.8776 23.6172 65.7578C23.3724 65.6328 23.0443 65.5703 22.6328 65.5703C22.2995 65.5703 21.9974 65.6302 21.7266 65.75C21.4557 65.8646 21.2396 66.0234 21.0781 66.2266C20.9219 66.4245 20.8438 66.6484 20.8438 66.8984H19.3984C19.3984 66.3828 19.5443 65.9401 19.8359 65.5703C20.1328 65.1953 20.526 64.9062 21.0156 64.7031C21.5104 64.5 22.0495 64.3984 22.6328 64.3984C23.1224 64.3984 23.5599 64.4531 23.9453 64.5625C24.3359 64.6667 24.6667 64.8229 24.9375 65.0312C25.2083 65.2344 25.4141 65.4896 25.5547 65.7969C25.7005 66.099 25.7734 66.4505 25.7734 66.8516C25.7734 67.138 25.7057 67.4089 25.5703 67.6641C25.4349 67.9193 25.2396 68.1458 24.9844 68.3438C24.7292 68.5365 24.4193 68.6875 24.0547 68.7969C23.6953 68.9062 23.2891 68.9609 22.8359 68.9609ZM21.2812 68.4141H22.8359C23.3411 68.4141 23.7865 68.4635 24.1719 68.5625C24.5573 68.6562 24.8802 68.7969 25.1406 68.9844C25.401 69.1719 25.5964 69.4036 25.7266 69.6797C25.862 69.9505 25.9297 70.263 25.9297 70.6172C25.9297 71.013 25.849 71.3698 25.6875 71.6875C25.5312 72 25.3073 72.2656 25.0156 72.4844C24.724 72.7031 24.375 72.8698 23.9688 72.9844C23.5677 73.099 23.1224 73.1562 22.6328 73.1562C22.0859 73.1562 21.5547 73.0625 21.0391 72.875C20.5234 72.6875 20.099 72.3984 19.7656 72.0078C19.4323 71.612 19.2656 71.1094 19.2656 70.5H20.7109C20.7109 70.7552 20.7917 70.9974 20.9531 71.2266C21.1146 71.4557 21.3385 71.6406 21.625 71.7812C21.9167 71.9219 22.2526 71.9922 22.6328 71.9922C23.0391 71.9922 23.3776 71.9297 23.6484 71.8047C23.9193 71.6797 24.1224 71.513 24.2578 71.3047C24.3984 71.0964 24.4688 70.8698 24.4688 70.625C24.4688 70.3073 24.4062 70.0521 24.2812 69.8594C24.1562 69.6667 23.9635 69.526 23.7031 69.4375C23.4479 69.3438 23.1198 69.2969 22.7188 69.2969H21.2812V68.4141ZM35.7422 69.2812H32.9688L32.9531 68.125H35.2188C35.6667 68.125 36.0391 68.0807 36.3359 67.9922C36.638 67.9036 36.8646 67.7708 37.0156 67.5938C37.1667 67.4167 37.2422 67.1979 37.2422 66.9375C37.2422 66.7344 37.1979 66.5573 37.1094 66.4062C37.026 66.25 36.8984 66.1224 36.7266 66.0234C36.5547 65.9193 36.3411 65.8438 36.0859 65.7969C35.8359 65.7448 35.5417 65.7188 35.2031 65.7188H33.3516V73H31.9062V64.5469H35.2031C35.7396 64.5469 36.2214 64.5938 36.6484 64.6875C37.0807 64.7812 37.4479 64.9245 37.75 65.1172C38.0573 65.3047 38.2917 65.5443 38.4531 65.8359C38.6146 66.1276 38.6953 66.4714 38.6953 66.8672C38.6953 67.1224 38.6432 67.3646 38.5391 67.5938C38.4349 67.8229 38.2812 68.026 38.0781 68.2031C37.875 68.3802 37.625 68.526 37.3281 68.6406C37.0312 68.75 36.6901 68.8203 36.3047 68.8516L35.7422 69.2812ZM35.7422 73H32.4453L33.1641 71.8281H35.7422C36.1432 71.8281 36.4766 71.7786 36.7422 71.6797C37.0078 71.5755 37.2057 71.4297 37.3359 71.2422C37.4714 71.0495 37.5391 70.8203 37.5391 70.5547C37.5391 70.2891 37.4714 70.0625 37.3359 69.875C37.2057 69.6823 37.0078 69.5365 36.7422 69.4375C36.4766 69.3333 36.1432 69.2812 35.7422 69.2812H33.5469L33.5625 68.125H36.3047L36.8281 68.5625C37.2917 68.599 37.6849 68.7135 38.0078 68.9062C38.3307 69.099 38.5755 69.3438 38.7422 69.6406C38.9089 69.9323 38.9922 70.25 38.9922 70.5938C38.9922 70.9896 38.9167 71.3385 38.7656 71.6406C38.6198 71.9427 38.4062 72.1953 38.125 72.3984C37.8438 72.5964 37.5026 72.7474 37.1016 72.8516C36.7005 72.9505 36.2474 73 35.7422 73ZM42.1172 67.4531H44.6562C45.3385 67.4531 45.9141 67.5729 46.3828 67.8125C46.8516 68.0469 47.2057 68.3724 47.4453 68.7891C47.6901 69.2005 47.8125 69.6693 47.8125 70.1953C47.8125 70.5859 47.7448 70.9531 47.6094 71.2969C47.474 71.6354 47.2708 71.9323 47 72.1875C46.7344 72.4427 46.4036 72.6432 46.0078 72.7891C45.6172 72.9297 45.1667 73 44.6562 73H41.0625V64.5469H42.5078V71.8125H44.6562C45.0729 71.8125 45.4062 71.737 45.6562 71.5859C45.9062 71.4349 46.0859 71.2396 46.1953 71C46.3047 70.7604 46.3594 70.5104 46.3594 70.25C46.3594 69.9948 46.3047 69.7448 46.1953 69.5C46.0859 69.2552 45.9062 69.0521 45.6562 68.8906C45.4062 68.724 45.0729 68.6406 44.6562 68.6406H42.1172V67.4531ZM50.8203 64.5469V73H49.375V64.5469H50.8203ZM54.3281 64.5469L56.1797 67.625L58.0547 64.5469H59.75L56.9844 68.7188L59.8359 73H58.1641L56.2109 69.8281L54.2578 73H52.5781L55.4219 68.7188L52.6641 64.5469H54.3281ZM60.75 68.8672V68.6875C60.75 68.0781 60.8385 67.513 61.0156 66.9922C61.1927 66.4661 61.4479 66.0104 61.7812 65.625C62.1146 65.2344 62.5182 64.9323 62.9922 64.7188C63.4661 64.5 63.9974 64.3906 64.5859 64.3906C65.1797 64.3906 65.7135 64.5 66.1875 64.7188C66.6667 64.9323 67.0729 65.2344 67.4062 65.625C67.7448 66.0104 68.0026 66.4661 68.1797 66.9922C68.3568 67.513 68.4453 68.0781 68.4453 68.6875V68.8672C68.4453 69.4766 68.3568 70.0417 68.1797 70.5625C68.0026 71.0833 67.7448 71.5391 67.4062 71.9297C67.0729 72.3151 66.6693 72.6172 66.1953 72.8359C65.7266 73.0495 65.1953 73.1562 64.6016 73.1562C64.0078 73.1562 63.474 73.0495 63 72.8359C62.526 72.6172 62.1198 72.3151 61.7812 71.9297C61.4479 71.5391 61.1927 71.0833 61.0156 70.5625C60.8385 70.0417 60.75 69.4766 60.75 68.8672ZM62.1953 68.6875V68.8672C62.1953 69.2891 62.2448 69.6875 62.3438 70.0625C62.4427 70.4323 62.5911 70.7604 62.7891 71.0469C62.9922 71.3333 63.2448 71.5599 63.5469 71.7266C63.849 71.888 64.2005 71.9688 64.6016 71.9688C64.9974 71.9688 65.3438 71.888 65.6406 71.7266C65.9427 71.5599 66.1927 71.3333 66.3906 71.0469C66.5885 70.7604 66.737 70.4323 66.8359 70.0625C66.9401 69.6875 66.9922 69.2891 66.9922 68.8672V68.6875C66.9922 68.2708 66.9401 67.8776 66.8359 67.5078C66.737 67.1328 66.5859 66.8021 66.3828 66.5156C66.1849 66.224 65.9349 65.9948 65.6328 65.8281C65.3359 65.6615 64.987 65.5781 64.5859 65.5781C64.1901 65.5781 63.8411 65.6615 63.5391 65.8281C63.2422 65.9948 62.9922 66.224 62.7891 66.5156C62.5911 66.8021 62.4427 67.1328 62.3438 67.5078C62.2448 67.8776 62.1953 68.2708 62.1953 68.6875ZM71.2188 64.5469H72.6641L72.5391 67.7109C72.5078 68.513 72.4167 69.2057 72.2656 69.7891C72.1146 70.3724 71.9219 70.8698 71.6875 71.2812C71.4531 71.6875 71.1901 72.0286 70.8984 72.3047C70.612 72.5807 70.3151 72.8125 70.0078 73H69.2891L69.3281 71.8203L69.625 71.8125C69.7969 71.6094 69.9635 71.401 70.125 71.1875C70.2865 70.9688 70.4349 70.7109 70.5703 70.4141C70.7057 70.112 70.8177 69.7448 70.9062 69.3125C71 68.875 71.0599 68.3411 71.0859 67.7109L71.2188 64.5469ZM71.5781 64.5469H76.6641V73H75.2188V65.8828H71.5781V64.5469ZM68.9609 71.8125H77.75V75.4922H76.3047V73H70.4062V75.4922H68.9531L68.9609 71.8125ZM85.0859 68.2109V69.3828H80.6172V68.2109H85.0859ZM80.9219 64.5469V73H79.4766V64.5469H80.9219ZM86.2578 64.5469V73H84.8047V64.5469H86.2578ZM89.7734 67.4531H92.3125C92.9948 67.4531 93.5703 67.5729 94.0391 67.8125C94.5078 68.0469 94.862 68.3724 95.1016 68.7891C95.3464 69.2005 95.4688 69.6693 95.4688 70.1953C95.4688 70.5859 95.401 70.9531 95.2656 71.2969C95.1302 71.6354 94.9271 71.9323 94.6562 72.1875C94.3906 72.4427 94.0599 72.6432 93.6641 72.7891C93.2734 72.9297 92.8229 73 92.3125 73H88.7188V64.5469H90.1641V71.8125H92.3125C92.7292 71.8125 93.0625 71.737 93.3125 71.5859C93.5625 71.4349 93.7422 71.2396 93.8516 71C93.9609 70.7604 94.0156 70.5104 94.0156 70.25C94.0156 69.9948 93.9609 69.7448 93.8516 69.5C93.7422 69.2552 93.5625 69.0521 93.3125 68.8906C93.0625 68.724 92.7292 68.6406 92.3125 68.6406H89.7734V67.4531ZM98.4766 64.5469V73H97.0312V64.5469H98.4766ZM101.984 64.5469L103.836 67.625L105.711 64.5469H107.406L104.641 68.7188L107.492 73H105.82L103.867 69.8281L101.914 73H100.234L103.078 68.7188L100.32 64.5469H101.984ZM114.195 71.7891H114.344C115.177 71.7891 115.854 71.6719 116.375 71.4375C116.896 71.2031 117.297 70.888 117.578 70.4922C117.859 70.0964 118.052 69.651 118.156 69.1562C118.26 68.6562 118.312 68.1432 118.312 67.6172V65.875C118.312 65.3594 118.253 64.901 118.133 64.5C118.018 64.099 117.857 63.763 117.648 63.4922C117.445 63.2214 117.214 63.0156 116.953 62.875C116.693 62.7344 116.417 62.6641 116.125 62.6641C115.792 62.6641 115.492 62.7318 115.227 62.8672C114.966 62.9974 114.745 63.1823 114.562 63.4219C114.385 63.6615 114.25 63.9427 114.156 64.2656C114.062 64.5885 114.016 64.9401 114.016 65.3203C114.016 65.6589 114.057 65.987 114.141 66.3047C114.224 66.6224 114.352 66.9089 114.523 67.1641C114.695 67.4193 114.909 67.6224 115.164 67.7734C115.424 67.9193 115.729 67.9922 116.078 67.9922C116.401 67.9922 116.703 67.9297 116.984 67.8047C117.271 67.6745 117.523 67.5 117.742 67.2812C117.966 67.0573 118.143 66.8047 118.273 66.5234C118.409 66.2422 118.487 65.9479 118.508 65.6406H119.195C119.195 66.0729 119.109 66.5 118.938 66.9219C118.771 67.3385 118.536 67.7188 118.234 68.0625C117.932 68.4062 117.578 68.6823 117.172 68.8906C116.766 69.0938 116.323 69.1953 115.844 69.1953C115.281 69.1953 114.794 69.0859 114.383 68.8672C113.971 68.6484 113.633 68.3568 113.367 67.9922C113.107 67.6276 112.911 67.2214 112.781 66.7734C112.656 66.3203 112.594 65.862 112.594 65.3984C112.594 64.8568 112.669 64.349 112.82 63.875C112.971 63.401 113.195 62.9844 113.492 62.625C113.789 62.2604 114.156 61.9766 114.594 61.7734C115.036 61.5703 115.547 61.4688 116.125 61.4688C116.776 61.4688 117.331 61.599 117.789 61.8594C118.247 62.1198 118.62 62.4688 118.906 62.9062C119.198 63.3438 119.411 63.8359 119.547 64.3828C119.682 64.9297 119.75 65.4922 119.75 66.0703V66.5938C119.75 67.1823 119.711 67.7812 119.633 68.3906C119.56 68.9948 119.417 69.5729 119.203 70.125C118.995 70.6771 118.69 71.1719 118.289 71.6094C117.888 72.0417 117.365 72.3854 116.719 72.6406C116.078 72.8906 115.286 73.0156 114.344 73.0156H114.195V71.7891ZM121.852 72.2344C121.852 71.9896 121.927 71.7839 122.078 71.6172C122.234 71.4453 122.458 71.3594 122.75 71.3594C123.042 71.3594 123.263 71.4453 123.414 71.6172C123.57 71.7839 123.648 71.9896 123.648 72.2344C123.648 72.474 123.57 72.6771 123.414 72.8438C123.263 73.0104 123.042 73.0938 122.75 73.0938C122.458 73.0938 122.234 73.0104 122.078 72.8438C121.927 72.6771 121.852 72.474 121.852 72.2344ZM121.859 65.3359C121.859 65.0911 121.935 64.8854 122.086 64.7188C122.242 64.5469 122.466 64.4609 122.758 64.4609C123.049 64.4609 123.271 64.5469 123.422 64.7188C123.578 64.8854 123.656 65.0911 123.656 65.3359C123.656 65.5755 123.578 65.7786 123.422 65.9453C123.271 66.112 123.049 66.1953 122.758 66.1953C122.466 66.1953 122.242 66.112 122.086 65.9453C121.935 65.7786 121.859 65.5755 121.859 65.3359ZM132.773 66.4062V68.1406C132.773 69.0729 132.69 69.8594 132.523 70.5C132.357 71.1406 132.117 71.6562 131.805 72.0469C131.492 72.4375 131.115 72.7214 130.672 72.8984C130.234 73.0703 129.74 73.1562 129.188 73.1562C128.75 73.1562 128.346 73.1016 127.977 72.9922C127.607 72.8828 127.273 72.7083 126.977 72.4688C126.685 72.224 126.435 71.9062 126.227 71.5156C126.018 71.125 125.859 70.651 125.75 70.0938C125.641 69.5365 125.586 68.8854 125.586 68.1406V66.4062C125.586 65.474 125.669 64.6927 125.836 64.0625C126.008 63.4323 126.25 62.9271 126.562 62.5469C126.875 62.1615 127.25 61.8854 127.688 61.7188C128.13 61.5521 128.625 61.4688 129.172 61.4688C129.615 61.4688 130.021 61.5234 130.391 61.6328C130.766 61.737 131.099 61.9062 131.391 62.1406C131.682 62.3698 131.93 62.6771 132.133 63.0625C132.341 63.4427 132.5 63.9089 132.609 64.4609C132.719 65.013 132.773 65.6615 132.773 66.4062ZM131.32 68.375V66.1641C131.32 65.6536 131.289 65.2057 131.227 64.8203C131.169 64.4297 131.083 64.0964 130.969 63.8203C130.854 63.5443 130.708 63.3203 130.531 63.1484C130.359 62.9766 130.159 62.8516 129.93 62.7734C129.706 62.6901 129.453 62.6484 129.172 62.6484C128.828 62.6484 128.523 62.7135 128.258 62.8438C127.992 62.9688 127.768 63.1693 127.586 63.4453C127.409 63.7214 127.273 64.0833 127.18 64.5312C127.086 64.9792 127.039 65.5234 127.039 66.1641V68.375C127.039 68.8854 127.068 69.3359 127.125 69.7266C127.188 70.1172 127.279 70.4557 127.398 70.7422C127.518 71.0234 127.664 71.2552 127.836 71.4375C128.008 71.6198 128.206 71.7552 128.43 71.8438C128.659 71.9271 128.911 71.9688 129.188 71.9688C129.542 71.9688 129.852 71.901 130.117 71.7656C130.383 71.6302 130.604 71.4193 130.781 71.1328C130.964 70.8411 131.099 70.4688 131.188 70.0156C131.276 69.5573 131.32 69.0104 131.32 68.375ZM141.773 66.4062V68.1406C141.773 69.0729 141.69 69.8594 141.523 70.5C141.357 71.1406 141.117 71.6562 140.805 72.0469C140.492 72.4375 140.115 72.7214 139.672 72.8984C139.234 73.0703 138.74 73.1562 138.188 73.1562C137.75 73.1562 137.346 73.1016 136.977 72.9922C136.607 72.8828 136.273 72.7083 135.977 72.4688C135.685 72.224 135.435 71.9062 135.227 71.5156C135.018 71.125 134.859 70.651 134.75 70.0938C134.641 69.5365 134.586 68.8854 134.586 68.1406V66.4062C134.586 65.474 134.669 64.6927 134.836 64.0625C135.008 63.4323 135.25 62.9271 135.562 62.5469C135.875 62.1615 136.25 61.8854 136.688 61.7188C137.13 61.5521 137.625 61.4688 138.172 61.4688C138.615 61.4688 139.021 61.5234 139.391 61.6328C139.766 61.737 140.099 61.9062 140.391 62.1406C140.682 62.3698 140.93 62.6771 141.133 63.0625C141.341 63.4427 141.5 63.9089 141.609 64.4609C141.719 65.013 141.773 65.6615 141.773 66.4062ZM140.32 68.375V66.1641C140.32 65.6536 140.289 65.2057 140.227 64.8203C140.169 64.4297 140.083 64.0964 139.969 63.8203C139.854 63.5443 139.708 63.3203 139.531 63.1484C139.359 62.9766 139.159 62.8516 138.93 62.7734C138.706 62.6901 138.453 62.6484 138.172 62.6484C137.828 62.6484 137.523 62.7135 137.258 62.8438C136.992 62.9688 136.768 63.1693 136.586 63.4453C136.409 63.7214 136.273 64.0833 136.18 64.5312C136.086 64.9792 136.039 65.5234 136.039 66.1641V68.375C136.039 68.8854 136.068 69.3359 136.125 69.7266C136.188 70.1172 136.279 70.4557 136.398 70.7422C136.518 71.0234 136.664 71.2552 136.836 71.4375C137.008 71.6198 137.206 71.7552 137.43 71.8438C137.659 71.9271 137.911 71.9688 138.188 71.9688C138.542 71.9688 138.852 71.901 139.117 71.7656C139.383 71.6302 139.604 71.4193 139.781 71.1328C139.964 70.8411 140.099 70.4688 140.188 70.0156C140.276 69.5573 140.32 69.0104 140.32 68.375ZM146.797 67.5703V68.7578H142.984V67.5703H146.797ZM155.508 71.8125V73H148.062V71.9609L151.789 67.8125C152.247 67.3021 152.602 66.8698 152.852 66.5156C153.107 66.1562 153.284 65.8359 153.383 65.5547C153.487 65.2682 153.539 64.9766 153.539 64.6797C153.539 64.3047 153.461 63.9661 153.305 63.6641C153.154 63.3568 152.93 63.112 152.633 62.9297C152.336 62.7474 151.977 62.6562 151.555 62.6562C151.049 62.6562 150.628 62.7552 150.289 62.9531C149.956 63.1458 149.706 63.4167 149.539 63.7656C149.372 64.1146 149.289 64.5156 149.289 64.9688H147.844C147.844 64.3281 147.984 63.7422 148.266 63.2109C148.547 62.6797 148.964 62.2578 149.516 61.9453C150.068 61.6276 150.747 61.4688 151.555 61.4688C152.273 61.4688 152.888 61.5964 153.398 61.8516C153.909 62.1016 154.299 62.4557 154.57 62.9141C154.846 63.3672 154.984 63.8984 154.984 64.5078C154.984 64.8411 154.927 65.1797 154.812 65.5234C154.703 65.862 154.549 66.2005 154.352 66.5391C154.159 66.8776 153.932 67.2109 153.672 67.5391C153.417 67.8672 153.143 68.1901 152.852 68.5078L149.805 71.8125H155.508ZM161.805 61.5625V73H160.359V63.3672L157.445 64.4297V63.125L161.578 61.5625H161.805ZM166.148 72.2344C166.148 71.9896 166.224 71.7839 166.375 71.6172C166.531 71.4453 166.755 71.3594 167.047 71.3594C167.339 71.3594 167.56 71.4453 167.711 71.6172C167.867 71.7839 167.945 71.9896 167.945 72.2344C167.945 72.474 167.867 72.6771 167.711 72.8438C167.56 73.0104 167.339 73.0938 167.047 73.0938C166.755 73.0938 166.531 73.0104 166.375 72.8438C166.224 72.6771 166.148 72.474 166.148 72.2344ZM166.156 65.3359C166.156 65.0911 166.232 64.8854 166.383 64.7188C166.539 64.5469 166.763 64.4609 167.055 64.4609C167.346 64.4609 167.568 64.5469 167.719 64.7188C167.875 64.8854 167.953 65.0911 167.953 65.3359C167.953 65.5755 167.875 65.7786 167.719 65.9453C167.568 66.112 167.346 66.1953 167.055 66.1953C166.763 66.1953 166.539 66.112 166.383 65.9453C166.232 65.7786 166.156 65.5755 166.156 65.3359ZM177.07 66.4062V68.1406C177.07 69.0729 176.987 69.8594 176.82 70.5C176.654 71.1406 176.414 71.6562 176.102 72.0469C175.789 72.4375 175.411 72.7214 174.969 72.8984C174.531 73.0703 174.036 73.1562 173.484 73.1562C173.047 73.1562 172.643 73.1016 172.273 72.9922C171.904 72.8828 171.57 72.7083 171.273 72.4688C170.982 72.224 170.732 71.9062 170.523 71.5156C170.315 71.125 170.156 70.651 170.047 70.0938C169.938 69.5365 169.883 68.8854 169.883 68.1406V66.4062C169.883 65.474 169.966 64.6927 170.133 64.0625C170.305 63.4323 170.547 62.9271 170.859 62.5469C171.172 62.1615 171.547 61.8854 171.984 61.7188C172.427 61.5521 172.922 61.4688 173.469 61.4688C173.911 61.4688 174.318 61.5234 174.688 61.6328C175.062 61.737 175.396 61.9062 175.688 62.1406C175.979 62.3698 176.227 62.6771 176.43 63.0625C176.638 63.4427 176.797 63.9089 176.906 64.4609C177.016 65.013 177.07 65.6615 177.07 66.4062ZM175.617 68.375V66.1641C175.617 65.6536 175.586 65.2057 175.523 64.8203C175.466 64.4297 175.38 64.0964 175.266 63.8203C175.151 63.5443 175.005 63.3203 174.828 63.1484C174.656 62.9766 174.456 62.8516 174.227 62.7734C174.003 62.6901 173.75 62.6484 173.469 62.6484C173.125 62.6484 172.82 62.7135 172.555 62.8438C172.289 62.9688 172.065 63.1693 171.883 63.4453C171.706 63.7214 171.57 64.0833 171.477 64.5312C171.383 64.9792 171.336 65.5234 171.336 66.1641V68.375C171.336 68.8854 171.365 69.3359 171.422 69.7266C171.484 70.1172 171.576 70.4557 171.695 70.7422C171.815 71.0234 171.961 71.2552 172.133 71.4375C172.305 71.6198 172.503 71.7552 172.727 71.8438C172.956 71.9271 173.208 71.9688 173.484 71.9688C173.839 71.9688 174.148 71.901 174.414 71.7656C174.68 71.6302 174.901 71.4193 175.078 71.1328C175.26 70.8411 175.396 70.4688 175.484 70.0156C175.573 69.5573 175.617 69.0104 175.617 68.375ZM186.07 66.4062V68.1406C186.07 69.0729 185.987 69.8594 185.82 70.5C185.654 71.1406 185.414 71.6562 185.102 72.0469C184.789 72.4375 184.411 72.7214 183.969 72.8984C183.531 73.0703 183.036 73.1562 182.484 73.1562C182.047 73.1562 181.643 73.1016 181.273 72.9922C180.904 72.8828 180.57 72.7083 180.273 72.4688C179.982 72.224 179.732 71.9062 179.523 71.5156C179.315 71.125 179.156 70.651 179.047 70.0938C178.938 69.5365 178.883 68.8854 178.883 68.1406V66.4062C178.883 65.474 178.966 64.6927 179.133 64.0625C179.305 63.4323 179.547 62.9271 179.859 62.5469C180.172 62.1615 180.547 61.8854 180.984 61.7188C181.427 61.5521 181.922 61.4688 182.469 61.4688C182.911 61.4688 183.318 61.5234 183.688 61.6328C184.062 61.737 184.396 61.9062 184.688 62.1406C184.979 62.3698 185.227 62.6771 185.43 63.0625C185.638 63.4427 185.797 63.9089 185.906 64.4609C186.016 65.013 186.07 65.6615 186.07 66.4062ZM184.617 68.375V66.1641C184.617 65.6536 184.586 65.2057 184.523 64.8203C184.466 64.4297 184.38 64.0964 184.266 63.8203C184.151 63.5443 184.005 63.3203 183.828 63.1484C183.656 62.9766 183.456 62.8516 183.227 62.7734C183.003 62.6901 182.75 62.6484 182.469 62.6484C182.125 62.6484 181.82 62.7135 181.555 62.8438C181.289 62.9688 181.065 63.1693 180.883 63.4453C180.706 63.7214 180.57 64.0833 180.477 64.5312C180.383 64.9792 180.336 65.5234 180.336 66.1641V68.375C180.336 68.8854 180.365 69.3359 180.422 69.7266C180.484 70.1172 180.576 70.4557 180.695 70.7422C180.815 71.0234 180.961 71.2552 181.133 71.4375C181.305 71.6198 181.503 71.7552 181.727 71.8438C181.956 71.9271 182.208 71.9688 182.484 71.9688C182.839 71.9688 183.148 71.901 183.414 71.7656C183.68 71.6302 183.901 71.4193 184.078 71.1328C184.26 70.8411 184.396 70.4688 184.484 70.0156C184.573 69.5573 184.617 69.0104 184.617 68.375Z" fill="white"/>
</svg>
