<svg width="301" height="109" viewBox="0 0 301 109" fill="none" xmlns="http://www.w3.org/2000/svg">
<path d="M0 68H217.5" stroke="#929292"/>
<rect x="216.5" y="24.5" width="84" height="84" rx="3.5" stroke="#929292"/>
<path d="M259 72.875C262.452 72.875 265.25 70.0208 265.25 66.5C265.25 62.9792 262.452 60.125 259 60.125C255.548 60.125 252.75 62.9792 252.75 66.5C252.75 70.0208 255.548 72.875 259 72.875Z" stroke="#6C0BF4" stroke-width="3" stroke-linecap="round" stroke-linejoin="round"/>
<path d="M274.417 72.875C274.139 73.5159 274.057 74.2269 274.179 74.9163C274.302 75.6056 274.624 76.2417 275.104 76.7425L275.229 76.87C275.617 77.2647 275.924 77.7334 276.134 78.2494C276.343 78.7653 276.451 79.3184 276.451 79.8769C276.451 80.4354 276.343 80.9884 276.134 81.5044C275.924 82.0203 275.617 82.489 275.229 82.8837C274.842 83.2789 274.383 83.5924 273.877 83.8063C273.371 84.0201 272.829 84.1302 272.281 84.1302C271.734 84.1302 271.191 84.0201 270.686 83.8063C270.18 83.5924 269.72 83.2789 269.333 82.8837L269.208 82.7562C268.717 82.2664 268.094 81.9377 267.418 81.8127C266.742 81.6878 266.045 81.7721 265.417 82.055C264.8 82.3244 264.275 82.7716 263.905 83.3418C263.535 83.9119 263.336 84.58 263.333 85.2637V85.625C263.333 86.7522 262.894 87.8332 262.113 88.6302C261.332 89.4272 260.272 89.875 259.167 89.875C258.062 89.875 257.002 89.4272 256.22 88.6302C255.439 87.8332 255 86.7522 255 85.625V85.4337C254.984 84.7304 254.761 84.0482 254.359 83.476C253.958 82.9037 253.397 82.4679 252.75 82.225C252.122 81.9421 251.425 81.8578 250.749 81.9827C250.073 82.1077 249.449 82.4364 248.958 82.9262L248.833 83.0538C248.446 83.4489 247.987 83.7624 247.481 83.9763C246.975 84.1901 246.433 84.3002 245.885 84.3002C245.338 84.3002 244.796 84.1901 244.29 83.9763C243.784 83.7624 243.324 83.4489 242.937 83.0538C242.55 82.659 242.243 82.1903 242.033 81.6744C241.823 81.1584 241.715 80.6054 241.715 80.0469C241.715 79.4884 241.823 78.9353 242.033 78.4194C242.243 77.9034 242.55 77.4347 242.937 77.04L243.062 76.9125C243.543 76.4117 243.865 75.7756 243.987 75.0863C244.11 74.3969 244.027 73.6859 243.75 73.045C243.486 72.4165 243.047 71.8805 242.488 71.5029C241.93 71.1253 241.275 70.9227 240.604 70.92H240.25C239.145 70.92 238.085 70.4722 237.304 69.6752C236.522 68.8782 236.083 67.7972 236.083 66.67C236.083 65.5428 236.522 64.4618 237.304 63.6648C238.085 62.8678 239.145 62.42 240.25 62.42H240.437C241.127 62.4035 241.796 62.1759 242.357 61.7666C242.918 61.3573 243.345 60.7853 243.583 60.125C243.861 59.4841 243.943 58.7731 243.821 58.0837C243.698 57.3944 243.376 56.7583 242.896 56.2575L242.771 56.13C242.383 55.7353 242.076 55.2666 241.866 54.7506C241.657 54.2347 241.549 53.6816 241.549 53.1231C241.549 52.5646 241.657 52.0116 241.866 51.4956C242.076 50.9797 242.383 50.511 242.771 50.1162C243.158 49.7211 243.617 49.4076 244.123 49.1937C244.629 48.9799 245.171 48.8698 245.719 48.8698C246.266 48.8698 246.808 48.9799 247.314 49.1937C247.82 49.4076 248.28 49.7211 248.667 50.1162L248.792 50.2437C249.283 50.7336 249.906 51.0623 250.582 51.1873C251.258 51.3122 251.955 51.2279 252.583 50.945H252.75C253.366 50.6756 253.892 50.2284 254.262 49.6582C254.632 49.0881 254.831 48.42 254.833 47.7363V47.375C254.833 46.2478 255.272 45.1668 256.054 44.3698C256.835 43.5728 257.895 43.125 259 43.125C260.105 43.125 261.165 43.5728 261.946 44.3698C262.728 45.1668 263.167 46.2478 263.167 47.375V47.5662C263.169 48.25 263.368 48.9181 263.738 49.4882C264.108 50.0584 264.634 50.5056 265.25 50.775C265.878 51.0579 266.575 51.1422 267.251 51.0173C267.927 50.8923 268.551 50.5636 269.042 50.0737L269.167 49.9463C269.554 49.5511 270.013 49.2376 270.519 49.0237C271.025 48.8099 271.567 48.6998 272.115 48.6998C272.662 48.6998 273.204 48.8099 273.71 49.0237C274.216 49.2376 274.676 49.5511 275.062 49.9463C275.45 50.341 275.757 50.8097 275.967 51.3256C276.177 51.8416 276.285 52.3946 276.285 52.9531C276.285 53.5116 276.177 54.0647 275.967 54.5806C275.757 55.0966 275.45 55.5653 275.062 55.96L274.937 56.0875C274.457 56.5883 274.135 57.2244 274.012 57.9137C273.89 58.6031 273.973 59.3141 274.25 59.955V60.125C274.514 60.7535 274.953 61.2895 275.512 61.6671C276.07 62.0447 276.725 62.2473 277.396 62.25H277.75C278.855 62.25 279.915 62.6978 280.696 63.4948C281.478 64.2918 281.917 65.3728 281.917 66.5C281.917 67.6272 281.478 68.7082 280.696 69.5052C279.915 70.3022 278.855 70.75 277.75 70.75H277.562C276.892 70.7527 276.237 70.9553 275.678 71.3329C275.119 71.7105 274.681 72.2465 274.417 72.875V72.875Z" stroke="#363636" stroke-width="3" stroke-linecap="round" stroke-linejoin="round"/>
<path d="M258.383 7.14844V8.87109C258.383 9.61849 258.303 10.2633 258.144 10.8057C257.984 11.3434 257.754 11.7855 257.453 12.1318C257.157 12.4736 256.804 12.7266 256.394 12.8906C255.983 13.0547 255.528 13.1367 255.026 13.1367C254.625 13.1367 254.252 13.0866 253.905 12.9863C253.559 12.8815 253.247 12.7197 252.969 12.501C252.695 12.2822 252.458 12.0065 252.258 11.6738C252.062 11.3366 251.911 10.9355 251.807 10.4707C251.702 10.0059 251.649 9.47266 251.649 8.87109V7.14844C251.649 6.40104 251.729 5.76074 251.889 5.22754C252.053 4.68978 252.283 4.25 252.579 3.9082C252.88 3.56641 253.235 3.31576 253.646 3.15625C254.056 2.99219 254.511 2.91016 255.013 2.91016C255.414 2.91016 255.785 2.96257 256.127 3.06738C256.473 3.16764 256.785 3.32487 257.063 3.53906C257.341 3.75326 257.578 4.02897 257.774 4.36621C257.97 4.69889 258.121 5.09766 258.226 5.5625C258.33 6.02279 258.383 6.55143 258.383 7.14844ZM256.407 9.13086V6.88184C256.407 6.52181 256.387 6.20736 256.346 5.93848C256.309 5.6696 256.252 5.44173 256.175 5.25488C256.097 5.06348 256.002 4.90853 255.888 4.79004C255.774 4.67155 255.644 4.58496 255.498 4.53027C255.352 4.47559 255.19 4.44824 255.013 4.44824C254.789 4.44824 254.591 4.49154 254.418 4.57812C254.249 4.66471 254.106 4.80371 253.987 4.99512C253.869 5.18197 253.778 5.43262 253.714 5.74707C253.655 6.05697 253.625 6.43522 253.625 6.88184V9.13086C253.625 9.49089 253.643 9.80762 253.68 10.0811C253.721 10.3545 253.78 10.5892 253.857 10.7852C253.939 10.9766 254.035 11.1338 254.145 11.2568C254.258 11.3753 254.388 11.4619 254.534 11.5166C254.685 11.5713 254.849 11.5986 255.026 11.5986C255.245 11.5986 255.439 11.5553 255.607 11.4688C255.781 11.3776 255.926 11.2363 256.045 11.0449C256.168 10.849 256.259 10.5938 256.318 10.2793C256.378 9.96484 256.407 9.58203 256.407 9.13086ZM262.299 7.16895H263.352C263.689 7.16895 263.967 7.11198 264.186 6.99805C264.405 6.87956 264.567 6.71549 264.671 6.50586C264.781 6.29167 264.835 6.04329 264.835 5.76074C264.835 5.50553 264.785 5.27995 264.685 5.08398C264.589 4.88346 264.441 4.72852 264.241 4.61914C264.04 4.50521 263.787 4.44824 263.482 4.44824C263.24 4.44824 263.017 4.49609 262.812 4.5918C262.607 4.6875 262.443 4.82194 262.32 4.99512C262.197 5.16829 262.135 5.37793 262.135 5.62402H260.16C260.16 5.07715 260.305 4.60091 260.597 4.19531C260.893 3.78971 261.29 3.47298 261.787 3.24512C262.283 3.01725 262.83 2.90332 263.427 2.90332C264.102 2.90332 264.692 3.0127 265.198 3.23145C265.704 3.44564 266.098 3.76237 266.38 4.18164C266.663 4.60091 266.804 5.12044 266.804 5.74023C266.804 6.05469 266.731 6.36003 266.585 6.65625C266.44 6.94792 266.23 7.21224 265.956 7.44922C265.688 7.68164 265.359 7.86849 264.972 8.00977C264.585 8.14648 264.15 8.21484 263.666 8.21484H262.299V7.16895ZM262.299 8.66602V7.64746H263.666C264.209 7.64746 264.685 7.70898 265.095 7.83203C265.505 7.95508 265.849 8.13281 266.127 8.36523C266.405 8.5931 266.615 8.86426 266.756 9.17871C266.898 9.48861 266.968 9.83268 266.968 10.2109C266.968 10.6758 266.879 11.0905 266.702 11.4551C266.524 11.8151 266.273 12.1204 265.95 12.3711C265.631 12.6217 265.257 12.8132 264.829 12.9453C264.4 13.0729 263.933 13.1367 263.427 13.1367C263.008 13.1367 262.595 13.0798 262.19 12.9658C261.789 12.8473 261.424 12.6719 261.096 12.4395C260.773 12.2025 260.513 11.9062 260.317 11.5508C260.125 11.1908 260.03 10.7646 260.03 10.2725H262.005C262.005 10.5277 262.069 10.7555 262.197 10.9561C262.324 11.1566 262.5 11.3138 262.723 11.4277C262.951 11.5417 263.204 11.5986 263.482 11.5986C263.796 11.5986 264.065 11.5417 264.289 11.4277C264.516 11.3092 264.69 11.1452 264.808 10.9355C264.931 10.7214 264.993 10.473 264.993 10.1904C264.993 9.82585 264.927 9.53418 264.794 9.31543C264.662 9.09212 264.473 8.92806 264.227 8.82324C263.981 8.71842 263.689 8.66602 263.352 8.66602H262.299Z" fill="#6C0BF4"/>
</svg>
