<svg width="410" height="109" viewBox="0 0 410 109" fill="none" xmlns="http://www.w3.org/2000/svg">
<path d="M302 68H410" stroke="#929292"/>
<path d="M0 68H108.75H217.5" stroke="#929292"/>
<rect x="217.5" y="24.5" width="84" height="84" rx="3.5" stroke="#929292"/>
<circle cx="260" cy="68" r="22.5" stroke="#363636" stroke-width="3"/>
<path d="M248.396 67.3685L257.87 76.8421L271.765 57.8948" stroke="#6C0BF4" stroke-width="3" stroke-linecap="round"/>
<path d="M259.383 7.14844V8.87109C259.383 9.61849 259.303 10.2633 259.144 10.8057C258.984 11.3434 258.754 11.7855 258.453 12.1318C258.157 12.4736 257.804 12.7266 257.394 12.8906C256.983 13.0547 256.528 13.1367 256.026 13.1367C255.625 13.1367 255.252 13.0866 254.905 12.9863C254.559 12.8815 254.247 12.7197 253.969 12.501C253.695 12.2822 253.458 12.0065 253.258 11.6738C253.062 11.3366 252.911 10.9355 252.807 10.4707C252.702 10.0059 252.649 9.47266 252.649 8.87109V7.14844C252.649 6.40104 252.729 5.76074 252.889 5.22754C253.053 4.68978 253.283 4.25 253.579 3.9082C253.88 3.56641 254.235 3.31576 254.646 3.15625C255.056 2.99219 255.511 2.91016 256.013 2.91016C256.414 2.91016 256.785 2.96257 257.127 3.06738C257.473 3.16764 257.785 3.32487 258.063 3.53906C258.341 3.75326 258.578 4.02897 258.774 4.36621C258.97 4.69889 259.121 5.09766 259.226 5.5625C259.33 6.02279 259.383 6.55143 259.383 7.14844ZM257.407 9.13086V6.88184C257.407 6.52181 257.387 6.20736 257.346 5.93848C257.309 5.6696 257.252 5.44173 257.175 5.25488C257.097 5.06348 257.002 4.90853 256.888 4.79004C256.774 4.67155 256.644 4.58496 256.498 4.53027C256.352 4.47559 256.19 4.44824 256.013 4.44824C255.789 4.44824 255.591 4.49154 255.418 4.57812C255.249 4.66471 255.106 4.80371 254.987 4.99512C254.869 5.18197 254.778 5.43262 254.714 5.74707C254.655 6.05697 254.625 6.43522 254.625 6.88184V9.13086C254.625 9.49089 254.643 9.80762 254.68 10.0811C254.721 10.3545 254.78 10.5892 254.857 10.7852C254.939 10.9766 255.035 11.1338 255.145 11.2568C255.258 11.3753 255.388 11.4619 255.534 11.5166C255.685 11.5713 255.849 11.5986 256.026 11.5986C256.245 11.5986 256.439 11.5553 256.607 11.4688C256.781 11.3776 256.926 11.2363 257.045 11.0449C257.168 10.849 257.259 10.5938 257.318 10.2793C257.378 9.96484 257.407 9.58203 257.407 9.13086ZM268.255 9.28125V10.8262H261.084L260.989 9.62988L265.138 3.04688H266.704L265.008 5.88379L262.944 9.28125H268.255ZM267.127 3.04688V13H265.159V3.04688H267.127Z" fill="#6C0BF4"/>
</svg>
