<svg width="192" height="109" viewBox="0 0 192 109" fill="none" xmlns="http://www.w3.org/2000/svg">
<path d="M0 68L108 68" stroke="#929292"/>
<rect x="107.5" y="24.5" width="84" height="84" rx="3.5" stroke="#929292"/>
<path d="M159 48.1666H163.5C164.693 48.1666 165.838 48.6495 166.682 49.5091C167.526 50.3686 168 51.5344 168 52.75V84.8333C168 86.0489 167.526 87.2147 166.682 88.0742C165.838 88.9337 164.693 89.4166 163.5 89.4166H136.5C135.307 89.4166 134.162 88.9337 133.318 88.0742C132.474 87.2147 132 86.0489 132 84.8333V52.75C132 51.5344 132.474 50.3686 133.318 49.5091C134.162 48.6495 135.307 48.1666 136.5 48.1666H141" stroke="#363636" stroke-width="3" stroke-linecap="round" stroke-linejoin="round"/>
<path d="M156.75 43.5834H143.25C142.007 43.5834 141 44.6094 141 45.875V50.4584C141 51.724 142.007 52.75 143.25 52.75H156.75C157.993 52.75 159 51.724 159 50.4584V45.875C159 44.6094 157.993 43.5834 156.75 43.5834Z" stroke="#363636" stroke-width="3" stroke-linecap="round" stroke-linejoin="round"/>
<rect x="140" y="62" width="20" height="3" fill="#6C0BF4"/>
<rect x="140" y="69" width="20" height="3" fill="#6C0BF4"/>
<rect x="140" y="76" width="20" height="3" fill="#6C0BF4"/>
<path d="M150.383 7.14844V8.87109C150.383 9.61849 150.303 10.2633 150.144 10.8057C149.984 11.3434 149.754 11.7855 149.453 12.1318C149.157 12.4736 148.804 12.7266 148.394 12.8906C147.983 13.0547 147.528 13.1367 147.026 13.1367C146.625 13.1367 146.252 13.0866 145.905 12.9863C145.559 12.8815 145.247 12.7197 144.969 12.501C144.695 12.2822 144.458 12.0065 144.258 11.6738C144.062 11.3366 143.911 10.9355 143.807 10.4707C143.702 10.0059 143.649 9.47266 143.649 8.87109V7.14844C143.649 6.40104 143.729 5.76074 143.889 5.22754C144.053 4.68978 144.283 4.25 144.579 3.9082C144.88 3.56641 145.235 3.31576 145.646 3.15625C146.056 2.99219 146.511 2.91016 147.013 2.91016C147.414 2.91016 147.785 2.96257 148.127 3.06738C148.473 3.16764 148.785 3.32487 149.063 3.53906C149.341 3.75326 149.578 4.02897 149.774 4.36621C149.97 4.69889 150.121 5.09766 150.226 5.5625C150.33 6.02279 150.383 6.55143 150.383 7.14844ZM148.407 9.13086V6.88184C148.407 6.52181 148.387 6.20736 148.346 5.93848C148.309 5.6696 148.252 5.44173 148.175 5.25488C148.097 5.06348 148.002 4.90853 147.888 4.79004C147.774 4.67155 147.644 4.58496 147.498 4.53027C147.352 4.47559 147.19 4.44824 147.013 4.44824C146.789 4.44824 146.591 4.49154 146.418 4.57812C146.249 4.66471 146.106 4.80371 145.987 4.99512C145.869 5.18197 145.778 5.43262 145.714 5.74707C145.655 6.05697 145.625 6.43522 145.625 6.88184V9.13086C145.625 9.49089 145.643 9.80762 145.68 10.0811C145.721 10.3545 145.78 10.5892 145.857 10.7852C145.939 10.9766 146.035 11.1338 146.145 11.2568C146.258 11.3753 146.388 11.4619 146.534 11.5166C146.685 11.5713 146.849 11.5986 147.026 11.5986C147.245 11.5986 147.439 11.5553 147.607 11.4688C147.781 11.3776 147.926 11.2363 148.045 11.0449C148.168 10.849 148.259 10.5938 148.318 10.2793C148.378 9.96484 148.407 9.58203 148.407 9.13086ZM157.081 3.02637V13H155.113V5.2959L152.748 6.04785V4.49609L156.87 3.02637H157.081Z" fill="#6C0BF4"/>
</svg>
