<svg width="301" height="109" viewBox="0 0 301 109" fill="none" xmlns="http://www.w3.org/2000/svg">
<path d="M0 68H217.5" stroke="#929292"/>
<rect x="216.5" y="24.5" width="84" height="84" rx="3.5" stroke="#929292"/>
<path d="M267.305 51.5628H235.8C234.695 51.5628 233.8 52.4582 233.8 53.5628V86.4C233.8 87.5046 234.695 88.4 235.8 88.4H277.66C281.051 88.4 283.8 85.6513 283.8 82.2605V82.2605M283.8 82.2605V52.4C283.8 47.9817 280.218 44.4 275.8 44.4H275.491C274.386 44.4 273.491 45.2955 273.491 46.4V73.5076C273.491 74.6511 274.45 75.5558 275.589 75.6568C279.152 75.9728 283.8 77.548 283.8 82.2605Z" stroke="#363636" stroke-width="3"/>
<path d="M243.037 80.8735V61.946C243.037 60.8415 243.933 59.946 245.037 59.946H255.794M251.069 75.3925V78.3787C251.069 78.9309 251.517 79.3787 252.069 79.3787H266.133C266.686 79.3787 267.133 78.9309 267.133 78.3787V61.946C267.133 60.8415 266.238 59.946 265.133 59.946H255.794M249.563 69.1018H254.794C255.346 69.1018 255.794 68.6541 255.794 68.1018V59.946" stroke="#6C0BF4" stroke-width="3"/>
<path d="M258.383 7.14844V8.87109C258.383 9.61849 258.303 10.2633 258.144 10.8057C257.984 11.3434 257.754 11.7855 257.453 12.1318C257.157 12.4736 256.804 12.7266 256.394 12.8906C255.983 13.0547 255.528 13.1367 255.026 13.1367C254.625 13.1367 254.252 13.0866 253.905 12.9863C253.559 12.8815 253.247 12.7197 252.969 12.501C252.695 12.2822 252.458 12.0065 252.258 11.6738C252.062 11.3366 251.911 10.9355 251.807 10.4707C251.702 10.0059 251.649 9.47266 251.649 8.87109V7.14844C251.649 6.40104 251.729 5.76074 251.889 5.22754C252.053 4.68978 252.283 4.25 252.579 3.9082C252.88 3.56641 253.235 3.31576 253.646 3.15625C254.056 2.99219 254.511 2.91016 255.013 2.91016C255.414 2.91016 255.785 2.96257 256.127 3.06738C256.473 3.16764 256.785 3.32487 257.063 3.53906C257.341 3.75326 257.578 4.02897 257.774 4.36621C257.97 4.69889 258.121 5.09766 258.226 5.5625C258.33 6.02279 258.383 6.55143 258.383 7.14844ZM256.407 9.13086V6.88184C256.407 6.52181 256.387 6.20736 256.346 5.93848C256.309 5.6696 256.252 5.44173 256.175 5.25488C256.097 5.06348 256.002 4.90853 255.888 4.79004C255.774 4.67155 255.644 4.58496 255.498 4.53027C255.352 4.47559 255.19 4.44824 255.013 4.44824C254.789 4.44824 254.591 4.49154 254.418 4.57812C254.249 4.66471 254.106 4.80371 253.987 4.99512C253.869 5.18197 253.778 5.43262 253.714 5.74707C253.655 6.05697 253.625 6.43522 253.625 6.88184V9.13086C253.625 9.49089 253.643 9.80762 253.68 10.0811C253.721 10.3545 253.78 10.5892 253.857 10.7852C253.939 10.9766 254.035 11.1338 254.145 11.2568C254.258 11.3753 254.388 11.4619 254.534 11.5166C254.685 11.5713 254.849 11.5986 255.026 11.5986C255.245 11.5986 255.439 11.5553 255.607 11.4688C255.781 11.3776 255.926 11.2363 256.045 11.0449C256.168 10.849 256.259 10.5938 256.318 10.2793C256.378 9.96484 256.407 9.58203 256.407 9.13086ZM267.091 11.4619V13H260.283V11.6875L263.502 8.23535C263.826 7.87533 264.081 7.55859 264.268 7.28516C264.455 7.00716 264.589 6.75879 264.671 6.54004C264.758 6.31673 264.801 6.10482 264.801 5.9043C264.801 5.60352 264.751 5.34603 264.651 5.13184C264.551 4.91309 264.402 4.74447 264.206 4.62598C264.015 4.50749 263.778 4.44824 263.496 4.44824C263.195 4.44824 262.935 4.52116 262.716 4.66699C262.502 4.81283 262.338 5.01562 262.224 5.27539C262.115 5.53516 262.06 5.8291 262.06 6.15723H260.084C260.084 5.56478 260.226 5.02246 260.508 4.53027C260.791 4.03353 261.19 3.63932 261.705 3.34766C262.22 3.05143 262.83 2.90332 263.537 2.90332C264.234 2.90332 264.822 3.01725 265.3 3.24512C265.783 3.46842 266.148 3.79199 266.394 4.21582C266.645 4.63509 266.77 5.13639 266.77 5.71973C266.77 6.04785 266.718 6.36914 266.613 6.68359C266.508 6.99349 266.358 7.30339 266.162 7.61328C265.97 7.91862 265.738 8.22852 265.464 8.54297C265.191 8.85742 264.888 9.18327 264.555 9.52051L262.826 11.4619H267.091Z" fill="#6C0BF4"/>
</svg>
